M48
; DRILL file KiCad 10.0.3 date 2026-06-25T13:14:56
; FORMAT={-:-/ absolute / metric / decimal}
; #@! TF.CreationDate,2026-06-25T13:14:56+05:30
; #@! TF.GenerationSoftware,Kicad,Pcbnew,10.0.3
; #@! TF.FileFunction,Plated,1,2,PTH
FMAT,2
METRIC
; #@! TA.AperFunction,Plated,PTH,ViaDrill
T1C0.300
; #@! TA.AperFunction,Plated,PTH,ComponentDrill
T2C1.000
; #@! TA.AperFunction,Plated,PTH,ComponentDrill
T3C1.100
%
G90
G05
T1
X121.35Y-128.35
X121.7Y-122.7
X122.0Y-131.0
X124.0Y-128.0
X133.0Y-128.0
X144.0Y-112.0
X146.0Y-113.0
X147.0Y-110.0
T2
X126.0Y-130.0
X126.0Y-132.54
X126.615Y-114.725
X126.615Y-117.265
X135.14Y-104.13
X137.68Y-104.13
X140.22Y-104.13
X142.76Y-104.13
X144.28Y-55.87
X145.3Y-104.13
X146.82Y-55.87
X147.84Y-104.13
X149.36Y-55.87
X150.38Y-104.13
X151.9Y-55.87
X152.92Y-104.13
X154.44Y-55.87
X155.46Y-104.13
X156.98Y-55.87
X158.0Y-104.13
X159.52Y-55.87
X162.06Y-55.87
X162.06Y-104.13
X164.6Y-104.13
X167.14Y-55.87
X167.14Y-104.13
X169.68Y-55.87
X169.68Y-104.13
X172.22Y-55.87
X172.22Y-104.13
X174.76Y-55.87
X174.76Y-104.13
X177.3Y-55.87
X177.3Y-104.13
X179.84Y-55.87
X179.84Y-104.13
T3
X112.92Y-124.0
X115.46Y-124.0
X118.0Y-124.0
M30
