%TF.GenerationSoftware,KiCad,Pcbnew,10.0.3*%
%TF.CreationDate,2026-06-25T13:14:46+05:30*%
%TF.ProjectId,PCB_1_Multisheet_Schematic,5043425f-315f-44d7-956c-746973686565,rev?*%
%TF.SameCoordinates,Original*%
%TF.FileFunction,Legend,Top*%
%TF.FilePolarity,Positive*%
%FSLAX46Y46*%
G04 Gerber Fmt 4.6, Leading zero omitted, Abs format (unit mm)*
G04 Created by KiCad (PCBNEW 10.0.3) date 2026-06-25 13:14:46*
%MOMM*%
%LPD*%
G01*
G04 APERTURE LIST*
%ADD10C,0.150000*%
%ADD11C,0.120000*%
G04 APERTURE END LIST*
D10*
X114698095Y-119354819D02*
X114698095Y-120164342D01*
X114698095Y-120164342D02*
X114745714Y-120259580D01*
X114745714Y-120259580D02*
X114793333Y-120307200D01*
X114793333Y-120307200D02*
X114888571Y-120354819D01*
X114888571Y-120354819D02*
X115079047Y-120354819D01*
X115079047Y-120354819D02*
X115174285Y-120307200D01*
X115174285Y-120307200D02*
X115221904Y-120259580D01*
X115221904Y-120259580D02*
X115269523Y-120164342D01*
X115269523Y-120164342D02*
X115269523Y-119354819D01*
X116269523Y-120354819D02*
X115698095Y-120354819D01*
X115983809Y-120354819D02*
X115983809Y-119354819D01*
X115983809Y-119354819D02*
X115888571Y-119497676D01*
X115888571Y-119497676D02*
X115793333Y-119592914D01*
X115793333Y-119592914D02*
X115698095Y-119640533D01*
X141833333Y-124979819D02*
X141500000Y-124503628D01*
X141261905Y-124979819D02*
X141261905Y-123979819D01*
X141261905Y-123979819D02*
X141642857Y-123979819D01*
X141642857Y-123979819D02*
X141738095Y-124027438D01*
X141738095Y-124027438D02*
X141785714Y-124075057D01*
X141785714Y-124075057D02*
X141833333Y-124170295D01*
X141833333Y-124170295D02*
X141833333Y-124313152D01*
X141833333Y-124313152D02*
X141785714Y-124408390D01*
X141785714Y-124408390D02*
X141738095Y-124456009D01*
X141738095Y-124456009D02*
X141642857Y-124503628D01*
X141642857Y-124503628D02*
X141261905Y-124503628D01*
X142214286Y-124075057D02*
X142261905Y-124027438D01*
X142261905Y-124027438D02*
X142357143Y-123979819D01*
X142357143Y-123979819D02*
X142595238Y-123979819D01*
X142595238Y-123979819D02*
X142690476Y-124027438D01*
X142690476Y-124027438D02*
X142738095Y-124075057D01*
X142738095Y-124075057D02*
X142785714Y-124170295D01*
X142785714Y-124170295D02*
X142785714Y-124265533D01*
X142785714Y-124265533D02*
X142738095Y-124408390D01*
X142738095Y-124408390D02*
X142166667Y-124979819D01*
X142166667Y-124979819D02*
X142785714Y-124979819D01*
X142833333Y-117624819D02*
X142500000Y-117148628D01*
X142261905Y-117624819D02*
X142261905Y-116624819D01*
X142261905Y-116624819D02*
X142642857Y-116624819D01*
X142642857Y-116624819D02*
X142738095Y-116672438D01*
X142738095Y-116672438D02*
X142785714Y-116720057D01*
X142785714Y-116720057D02*
X142833333Y-116815295D01*
X142833333Y-116815295D02*
X142833333Y-116958152D01*
X142833333Y-116958152D02*
X142785714Y-117053390D01*
X142785714Y-117053390D02*
X142738095Y-117101009D01*
X142738095Y-117101009D02*
X142642857Y-117148628D01*
X142642857Y-117148628D02*
X142261905Y-117148628D01*
X143785714Y-117624819D02*
X143214286Y-117624819D01*
X143500000Y-117624819D02*
X143500000Y-116624819D01*
X143500000Y-116624819D02*
X143404762Y-116767676D01*
X143404762Y-116767676D02*
X143309524Y-116862914D01*
X143309524Y-116862914D02*
X143214286Y-116910533D01*
X130051666Y-127184819D02*
X130051666Y-127899104D01*
X130051666Y-127899104D02*
X130004047Y-128041961D01*
X130004047Y-128041961D02*
X129908809Y-128137200D01*
X129908809Y-128137200D02*
X129765952Y-128184819D01*
X129765952Y-128184819D02*
X129670714Y-128184819D01*
X130480238Y-127280057D02*
X130527857Y-127232438D01*
X130527857Y-127232438D02*
X130623095Y-127184819D01*
X130623095Y-127184819D02*
X130861190Y-127184819D01*
X130861190Y-127184819D02*
X130956428Y-127232438D01*
X130956428Y-127232438D02*
X131004047Y-127280057D01*
X131004047Y-127280057D02*
X131051666Y-127375295D01*
X131051666Y-127375295D02*
X131051666Y-127470533D01*
X131051666Y-127470533D02*
X131004047Y-127613390D01*
X131004047Y-127613390D02*
X130432619Y-128184819D01*
X130432619Y-128184819D02*
X131051666Y-128184819D01*
X130666666Y-111909819D02*
X130666666Y-112624104D01*
X130666666Y-112624104D02*
X130619047Y-112766961D01*
X130619047Y-112766961D02*
X130523809Y-112862200D01*
X130523809Y-112862200D02*
X130380952Y-112909819D01*
X130380952Y-112909819D02*
X130285714Y-112909819D01*
X131666666Y-112909819D02*
X131095238Y-112909819D01*
X131380952Y-112909819D02*
X131380952Y-111909819D01*
X131380952Y-111909819D02*
X131285714Y-112052676D01*
X131285714Y-112052676D02*
X131190476Y-112147914D01*
X131190476Y-112147914D02*
X131095238Y-112195533D01*
X148261905Y-124804819D02*
X148261905Y-123804819D01*
X148261905Y-123804819D02*
X148500000Y-123804819D01*
X148500000Y-123804819D02*
X148642857Y-123852438D01*
X148642857Y-123852438D02*
X148738095Y-123947676D01*
X148738095Y-123947676D02*
X148785714Y-124042914D01*
X148785714Y-124042914D02*
X148833333Y-124233390D01*
X148833333Y-124233390D02*
X148833333Y-124376247D01*
X148833333Y-124376247D02*
X148785714Y-124566723D01*
X148785714Y-124566723D02*
X148738095Y-124661961D01*
X148738095Y-124661961D02*
X148642857Y-124757200D01*
X148642857Y-124757200D02*
X148500000Y-124804819D01*
X148500000Y-124804819D02*
X148261905Y-124804819D01*
X149214286Y-123900057D02*
X149261905Y-123852438D01*
X149261905Y-123852438D02*
X149357143Y-123804819D01*
X149357143Y-123804819D02*
X149595238Y-123804819D01*
X149595238Y-123804819D02*
X149690476Y-123852438D01*
X149690476Y-123852438D02*
X149738095Y-123900057D01*
X149738095Y-123900057D02*
X149785714Y-123995295D01*
X149785714Y-123995295D02*
X149785714Y-124090533D01*
X149785714Y-124090533D02*
X149738095Y-124233390D01*
X149738095Y-124233390D02*
X149166667Y-124804819D01*
X149166667Y-124804819D02*
X149785714Y-124804819D01*
X148261905Y-117804819D02*
X148261905Y-116804819D01*
X148261905Y-116804819D02*
X148500000Y-116804819D01*
X148500000Y-116804819D02*
X148642857Y-116852438D01*
X148642857Y-116852438D02*
X148738095Y-116947676D01*
X148738095Y-116947676D02*
X148785714Y-117042914D01*
X148785714Y-117042914D02*
X148833333Y-117233390D01*
X148833333Y-117233390D02*
X148833333Y-117376247D01*
X148833333Y-117376247D02*
X148785714Y-117566723D01*
X148785714Y-117566723D02*
X148738095Y-117661961D01*
X148738095Y-117661961D02*
X148642857Y-117757200D01*
X148642857Y-117757200D02*
X148500000Y-117804819D01*
X148500000Y-117804819D02*
X148261905Y-117804819D01*
X149785714Y-117804819D02*
X149214286Y-117804819D01*
X149500000Y-117804819D02*
X149500000Y-116804819D01*
X149500000Y-116804819D02*
X149404762Y-116947676D01*
X149404762Y-116947676D02*
X149309524Y-117042914D01*
X149309524Y-117042914D02*
X149214286Y-117090533D01*
X118833333Y-128059580D02*
X118785714Y-128107200D01*
X118785714Y-128107200D02*
X118642857Y-128154819D01*
X118642857Y-128154819D02*
X118547619Y-128154819D01*
X118547619Y-128154819D02*
X118404762Y-128107200D01*
X118404762Y-128107200D02*
X118309524Y-128011961D01*
X118309524Y-128011961D02*
X118261905Y-127916723D01*
X118261905Y-127916723D02*
X118214286Y-127726247D01*
X118214286Y-127726247D02*
X118214286Y-127583390D01*
X118214286Y-127583390D02*
X118261905Y-127392914D01*
X118261905Y-127392914D02*
X118309524Y-127297676D01*
X118309524Y-127297676D02*
X118404762Y-127202438D01*
X118404762Y-127202438D02*
X118547619Y-127154819D01*
X118547619Y-127154819D02*
X118642857Y-127154819D01*
X118642857Y-127154819D02*
X118785714Y-127202438D01*
X118785714Y-127202438D02*
X118833333Y-127250057D01*
X119214286Y-127250057D02*
X119261905Y-127202438D01*
X119261905Y-127202438D02*
X119357143Y-127154819D01*
X119357143Y-127154819D02*
X119595238Y-127154819D01*
X119595238Y-127154819D02*
X119690476Y-127202438D01*
X119690476Y-127202438D02*
X119738095Y-127250057D01*
X119738095Y-127250057D02*
X119785714Y-127345295D01*
X119785714Y-127345295D02*
X119785714Y-127440533D01*
X119785714Y-127440533D02*
X119738095Y-127583390D01*
X119738095Y-127583390D02*
X119166667Y-128154819D01*
X119166667Y-128154819D02*
X119785714Y-128154819D01*
X113833333Y-127524580D02*
X113785714Y-127572200D01*
X113785714Y-127572200D02*
X113642857Y-127619819D01*
X113642857Y-127619819D02*
X113547619Y-127619819D01*
X113547619Y-127619819D02*
X113404762Y-127572200D01*
X113404762Y-127572200D02*
X113309524Y-127476961D01*
X113309524Y-127476961D02*
X113261905Y-127381723D01*
X113261905Y-127381723D02*
X113214286Y-127191247D01*
X113214286Y-127191247D02*
X113214286Y-127048390D01*
X113214286Y-127048390D02*
X113261905Y-126857914D01*
X113261905Y-126857914D02*
X113309524Y-126762676D01*
X113309524Y-126762676D02*
X113404762Y-126667438D01*
X113404762Y-126667438D02*
X113547619Y-126619819D01*
X113547619Y-126619819D02*
X113642857Y-126619819D01*
X113642857Y-126619819D02*
X113785714Y-126667438D01*
X113785714Y-126667438D02*
X113833333Y-126715057D01*
X114785714Y-127619819D02*
X114214286Y-127619819D01*
X114500000Y-127619819D02*
X114500000Y-126619819D01*
X114500000Y-126619819D02*
X114404762Y-126762676D01*
X114404762Y-126762676D02*
X114309524Y-126857914D01*
X114309524Y-126857914D02*
X114214286Y-126905533D01*
X144835714Y-52229104D02*
X145311904Y-52229104D01*
X144740476Y-52514819D02*
X145073809Y-51514819D01*
X145073809Y-51514819D02*
X145407142Y-52514819D01*
X146264285Y-52514819D02*
X145692857Y-52514819D01*
X145978571Y-52514819D02*
X145978571Y-51514819D01*
X145978571Y-51514819D02*
X145883333Y-51657676D01*
X145883333Y-51657676D02*
X145788095Y-51752914D01*
X145788095Y-51752914D02*
X145692857Y-51800533D01*
%TO.C,U1*%
D11*
X110350000Y-120740000D02*
X120570000Y-120740000D01*
X110350000Y-122120000D02*
X120570000Y-122120000D01*
X110350000Y-125360000D02*
X110350000Y-120740000D01*
X113610000Y-120740000D02*
X113610000Y-122120000D01*
X117310000Y-120740000D02*
X117310000Y-122120000D01*
X120570000Y-120740000D02*
X120570000Y-125360000D01*
X120570000Y-125360000D02*
X110350000Y-125360000D01*
%TO.C,R2*%
X141272936Y-125445000D02*
X142727064Y-125445000D01*
X141272936Y-127265000D02*
X142727064Y-127265000D01*
%TO.C,R1*%
X142272936Y-118090000D02*
X143727064Y-118090000D01*
X142272936Y-119910000D02*
X143727064Y-119910000D01*
%TO.C,J2*%
X124730000Y-128730000D02*
X126000000Y-128730000D01*
X124730000Y-130000000D02*
X124730000Y-128730000D01*
X127077358Y-132110000D02*
X127390000Y-132110000D01*
X127077358Y-132970000D02*
X127390000Y-132970000D01*
X127160000Y-129570000D02*
X127390000Y-129570000D01*
X127160000Y-130430000D02*
X127390000Y-130430000D01*
X127390000Y-131270000D02*
X130150000Y-131270000D01*
X130150000Y-132110000D02*
X136150000Y-132110000D01*
X136150000Y-132110000D02*
X136150000Y-132970000D01*
X136150000Y-132970000D02*
X130150000Y-132970000D01*
X127390000Y-128620000D02*
X130150000Y-128620000D01*
X130150000Y-133920000D01*
X127390000Y-133920000D01*
X127390000Y-128620000D01*
X130150000Y-129570000D02*
X136150000Y-129570000D01*
X136150000Y-130430000D01*
X130150000Y-130430000D01*
X130150000Y-129570000D01*
G36*
X130150000Y-129570000D02*
G01*
X136150000Y-129570000D01*
X136150000Y-130430000D01*
X130150000Y-130430000D01*
X130150000Y-129570000D01*
G37*
%TO.C,J1*%
X125345000Y-113455000D02*
X126615000Y-113455000D01*
X125345000Y-114725000D02*
X125345000Y-113455000D01*
X127692358Y-116835000D02*
X128005000Y-116835000D01*
X127692358Y-117695000D02*
X128005000Y-117695000D01*
X127775000Y-114295000D02*
X128005000Y-114295000D01*
X127775000Y-115155000D02*
X128005000Y-115155000D01*
X128005000Y-115995000D02*
X130765000Y-115995000D01*
X130765000Y-116835000D02*
X136765000Y-116835000D01*
X136765000Y-116835000D02*
X136765000Y-117695000D01*
X136765000Y-117695000D02*
X130765000Y-117695000D01*
X128005000Y-113345000D02*
X130765000Y-113345000D01*
X130765000Y-118645000D01*
X128005000Y-118645000D01*
X128005000Y-113345000D01*
X130765000Y-114295000D02*
X136765000Y-114295000D01*
X136765000Y-115155000D01*
X130765000Y-115155000D01*
X130765000Y-114295000D01*
G36*
X130765000Y-114295000D02*
G01*
X136765000Y-114295000D01*
X136765000Y-115155000D01*
X130765000Y-115155000D01*
X130765000Y-114295000D01*
G37*
%TO.C,D2*%
X147315000Y-125040000D02*
X147315000Y-126960000D01*
X147315000Y-126960000D02*
X150000000Y-126960000D01*
X150000000Y-125040000D02*
X147315000Y-125040000D01*
%TO.C,D1*%
X147315000Y-118040000D02*
X147315000Y-119960000D01*
X147315000Y-119960000D02*
X150000000Y-119960000D01*
X150000000Y-118040000D02*
X147315000Y-118040000D01*
%TO.C,C2*%
X118288748Y-128640000D02*
X119711252Y-128640000D01*
X118288748Y-131360000D02*
X119711252Y-131360000D01*
%TO.C,C1*%
X113288748Y-128105000D02*
X114711252Y-128105000D01*
X113288748Y-130825000D02*
X114711252Y-130825000D01*
%TO.C,A1*%
X109860000Y-85590000D02*
X109860000Y-97270000D01*
X109860000Y-97270000D02*
X116210000Y-97270000D01*
X114310000Y-56380000D02*
X114310000Y-65520000D01*
X114310000Y-65520000D02*
X116210000Y-65520000D01*
X116210000Y-53200000D02*
X116210000Y-56380000D01*
X116210000Y-56380000D02*
X114310000Y-56380000D01*
X116210000Y-65520000D02*
X116210000Y-85590000D01*
X116210000Y-85590000D02*
X109860000Y-85590000D01*
X116210000Y-97270000D02*
X116210000Y-106800000D01*
X116210000Y-106800000D02*
X180860000Y-106800000D01*
X180860000Y-106800000D02*
X182510000Y-105150000D01*
X182510000Y-53200000D02*
X116210000Y-53200000D01*
X182510000Y-55870000D02*
X182510000Y-53200000D01*
X182510000Y-93720000D02*
X185050000Y-91180000D01*
X182510000Y-105150000D02*
X182510000Y-93720000D01*
X185050000Y-58410000D02*
X182510000Y-55870000D01*
X185050000Y-91180000D02*
X185050000Y-58410000D01*
%TD*%
M02*
