%TF.GenerationSoftware,KiCad,Pcbnew,10.0.3*%
%TF.CreationDate,2026-06-25T13:14:46+05:30*%
%TF.ProjectId,PCB_1_Multisheet_Schematic,5043425f-315f-44d7-956c-746973686565,rev?*%
%TF.SameCoordinates,Original*%
%TF.FileFunction,Copper,L2,Bot*%
%TF.FilePolarity,Positive*%
%FSLAX46Y46*%
G04 Gerber Fmt 4.6, Leading zero omitted, Abs format (unit mm)*
G04 Created by KiCad (PCBNEW 10.0.3) date 2026-06-25 13:14:46*
%MOMM*%
%LPD*%
G01*
G04 APERTURE LIST*
%TA.AperFunction,ComponentPad*%
%ADD10R,1.905000X2.000000*%
%TD*%
%TA.AperFunction,ComponentPad*%
%ADD11O,1.905000X2.000000*%
%TD*%
%TA.AperFunction,ComponentPad*%
%ADD12R,1.700000X1.700000*%
%TD*%
%TA.AperFunction,ComponentPad*%
%ADD13C,1.700000*%
%TD*%
%TA.AperFunction,ComponentPad*%
%ADD14R,1.600000X1.600000*%
%TD*%
%TA.AperFunction,ComponentPad*%
%ADD15O,1.600000X1.600000*%
%TD*%
%TA.AperFunction,ViaPad*%
%ADD16C,0.600000*%
%TD*%
%TA.AperFunction,Conductor*%
%ADD17C,0.200000*%
%TD*%
G04 APERTURE END LIST*
D10*
%TO.P,U1,1,IN_1*%
%TO.N,/Power/12Vin*%
X112920000Y-124000000D03*
D11*
%TO.P,U1,2,GND_2*%
%TO.N,GND*%
X115460000Y-124000000D03*
%TO.P,U1,3,OUT_3*%
%TO.N,/5Vlocal*%
X118000000Y-124000000D03*
%TD*%
D12*
%TO.P,J2,1,Pin_1_1*%
%TO.N,/5Vlocal*%
X126000000Y-130000000D03*
D13*
%TO.P,J2,2,Pin_2_2*%
%TO.N,GND*%
X126000000Y-132540000D03*
%TD*%
D12*
%TO.P,J1,1,Pin_1_1*%
%TO.N,/Power/12Vin*%
X126615000Y-114725000D03*
D13*
%TO.P,J1,2,Pin_2_2*%
%TO.N,GND*%
X126615000Y-117265000D03*
%TD*%
D14*
%TO.P,A1,1,NC_1*%
%TO.N,unconnected-(A1-NC-Pad1)*%
X144280000Y-55870000D03*
D15*
%TO.P,A1,2,IOREF_2*%
%TO.N,unconnected-(A1-IOREF-Pad2)*%
X146820000Y-55870000D03*
%TO.P,A1,3,~{RESET}_3*%
%TO.N,unconnected-(A1-~{RESET}-Pad3)*%
X149360000Y-55870000D03*
%TO.P,A1,4,3V3_4*%
%TO.N,unconnected-(A1-3V3-Pad4)*%
X151900000Y-55870000D03*
%TO.P,A1,5,+5V_5*%
%TO.N,unconnected-(A1-+5V-Pad5)*%
X154440000Y-55870000D03*
%TO.P,A1,6,GND_6*%
%TO.N,GND*%
X156980000Y-55870000D03*
%TO.P,A1,7,GND_7*%
X159520000Y-55870000D03*
%TO.P,A1,8,VIN_8*%
%TO.N,/5Vlocal*%
X162060000Y-55870000D03*
%TO.P,A1,9,A0_9*%
%TO.N,MCULed*%
X167140000Y-55870000D03*
%TO.P,A1,10,A1_10*%
%TO.N,unconnected-(A1-A1-Pad10)*%
X169680000Y-55870000D03*
%TO.P,A1,11,A2_11*%
%TO.N,unconnected-(A1-A2-Pad11)*%
X172220000Y-55870000D03*
%TO.P,A1,12,A3_12*%
%TO.N,unconnected-(A1-A3-Pad12)*%
X174760000Y-55870000D03*
%TO.P,A1,13,SDA/A4_13*%
%TO.N,unconnected-(A1-SDA{slash}A4-Pad13)*%
X177300000Y-55870000D03*
%TO.P,A1,14,SCL/A5_14*%
%TO.N,unconnected-(A1-SCL{slash}A5-Pad14)*%
X179840000Y-55870000D03*
%TO.P,A1,15,D0/RX_15*%
%TO.N,unconnected-(A1-D0{slash}RX-Pad15)*%
X179840000Y-104130000D03*
%TO.P,A1,16,D1/TX_16*%
%TO.N,unconnected-(A1-D1{slash}TX-Pad16)*%
X177300000Y-104130000D03*
%TO.P,A1,17,D2_17*%
%TO.N,unconnected-(A1-D2-Pad17)*%
X174760000Y-104130000D03*
%TO.P,A1,18,D3_18*%
%TO.N,unconnected-(A1-D3-Pad18)*%
X172220000Y-104130000D03*
%TO.P,A1,19,D4_19*%
%TO.N,unconnected-(A1-D4-Pad19)*%
X169680000Y-104130000D03*
%TO.P,A1,20,D5_20*%
%TO.N,unconnected-(A1-D5-Pad20)*%
X167140000Y-104130000D03*
%TO.P,A1,21,D6_21*%
%TO.N,unconnected-(A1-D6-Pad21)*%
X164600000Y-104130000D03*
%TO.P,A1,22,D7_22*%
%TO.N,unconnected-(A1-D7-Pad22)*%
X162060000Y-104130000D03*
%TO.P,A1,23,D8_23*%
%TO.N,unconnected-(A1-D8-Pad23)*%
X158000000Y-104130000D03*
%TO.P,A1,24,D9_24*%
%TO.N,unconnected-(A1-D9-Pad24)*%
X155460000Y-104130000D03*
%TO.P,A1,25,D10_25*%
%TO.N,unconnected-(A1-D10-Pad25)*%
X152920000Y-104130000D03*
%TO.P,A1,26,D11_26*%
%TO.N,unconnected-(A1-D11-Pad26)*%
X150380000Y-104130000D03*
%TO.P,A1,27,D12_27*%
%TO.N,unconnected-(A1-D12-Pad27)*%
X147840000Y-104130000D03*
%TO.P,A1,28,D13_28*%
%TO.N,unconnected-(A1-D13-Pad28)*%
X145300000Y-104130000D03*
%TO.P,A1,29,GND_29*%
%TO.N,GND*%
X142760000Y-104130000D03*
%TO.P,A1,30,AREF_30*%
%TO.N,unconnected-(A1-AREF-Pad30)*%
X140220000Y-104130000D03*
%TO.P,A1,31,SDA/A4_31*%
%TO.N,unconnected-(A1-SDA{slash}A4-Pad31)*%
X137680000Y-104130000D03*
%TO.P,A1,32,SCL/A5_32*%
%TO.N,unconnected-(A1-SCL{slash}A5-Pad32)*%
X135140000Y-104130000D03*
%TD*%
D16*
%TO.N,/5Vlocal*%
X144000000Y-112000000D03*
%TO.N,MCULed*%
X147000000Y-110000000D03*
%TO.N,GND*%
X146000000Y-113000000D03*
%TO.N,/5Vlocal*%
X133000000Y-128000000D03*
X121350000Y-128350000D03*
%TO.N,GND*%
X122000000Y-131000000D03*
X124000000Y-128000000D03*
%TO.N,/Power/12Vin*%
X121700000Y-122700000D03*
%TD*%
%TO.N,GND*%
D17*
X156980000Y-55870000D02*
X159520000Y-55870000D01*
X142760000Y-70090000D02*
X156980000Y-55870000D01*
X142760000Y-104130000D02*
X142760000Y-70090000D01*
%TO.N,/5Vlocal*%
X162060000Y-72060000D02*
X162060000Y-55870000D01*
X167000000Y-77000000D02*
X162060000Y-72060000D01*
X146751471Y-110600000D02*
X146400000Y-110248529D01*
X146751471Y-113097058D02*
X146751471Y-110600000D01*
X146248529Y-113600000D02*
X146751471Y-113097058D01*
X146400000Y-110248529D02*
X146400000Y-97600000D01*
X145600000Y-113600000D02*
X146248529Y-113600000D01*
X146400000Y-97600000D02*
X167000000Y-77000000D01*
X144000000Y-112000000D02*
X145600000Y-113600000D01*
%TO.N,MCULed*%
X174000000Y-75000000D02*
X167140000Y-68140000D01*
X151820000Y-97180000D02*
X174000000Y-75000000D01*
X167140000Y-68140000D02*
X167140000Y-55870000D01*
X151820000Y-105180000D02*
X151820000Y-97180000D01*
X147000000Y-110000000D02*
X151820000Y-105180000D01*
%TO.N,GND*%
X146000000Y-112000000D02*
X142760000Y-108760000D01*
X146000000Y-113000000D02*
X146000000Y-112000000D01*
X142760000Y-108760000D02*
X142760000Y-104130000D01*
X129625000Y-117265000D02*
X142760000Y-104130000D01*
X126615000Y-117265000D02*
X129625000Y-117265000D01*
%TO.N,/5Vlocal*%
X126000000Y-130000000D02*
X131000000Y-130000000D01*
X131000000Y-130000000D02*
X133000000Y-128000000D01*
%TO.N,GND*%
X126615000Y-123925000D02*
X126615000Y-117265000D01*
X124000000Y-128000000D02*
X124000000Y-126540000D01*
X124000000Y-126540000D02*
X126615000Y-123925000D01*
%TO.N,/Power/12Vin*%
X125465000Y-115875000D02*
X126615000Y-114725000D01*
X125465000Y-121465000D02*
X125465000Y-115875000D01*
X126000000Y-122000000D02*
X125465000Y-121465000D01*
%TO.N,GND*%
X122000000Y-131000000D02*
X124460000Y-131000000D01*
X124460000Y-131000000D02*
X126000000Y-132540000D01*
%TO.N,/5Vlocal*%
X123000000Y-130000000D02*
X126000000Y-130000000D01*
X121350000Y-128350000D02*
X123000000Y-130000000D01*
%TO.N,/Power/12Vin*%
X122400000Y-122000000D02*
X126000000Y-122000000D01*
X121700000Y-122700000D02*
X122400000Y-122000000D01*
%TD*%
M02*
