%TF.GenerationSoftware,KiCad,Pcbnew,10.0.3*%
%TF.CreationDate,2026-06-25T13:14:46+05:30*%
%TF.ProjectId,PCB_1_Multisheet_Schematic,5043425f-315f-44d7-956c-746973686565,rev?*%
%TF.SameCoordinates,Original*%
%TF.FileFunction,Soldermask,Top*%
%TF.FilePolarity,Negative*%
%FSLAX46Y46*%
G04 Gerber Fmt 4.6, Leading zero omitted, Abs format (unit mm)*
G04 Created by KiCad (PCBNEW 10.0.3) date 2026-06-25 13:14:46*
%MOMM*%
%LPD*%
G01*
G04 APERTURE LIST*
G04 Aperture macros list*
%AMRoundRect*
0 Rectangle with rounded corners*
0 $1 Rounding radius*
0 $2 $3 $4 $5 $6 $7 $8 $9 X,Y pos of 4 corners*
0 Add a 4 corners polygon primitive as box body*
4,1,4,$2,$3,$4,$5,$6,$7,$8,$9,$2,$3,0*
0 Add four circle primitives for the rounded corners*
1,1,$1+$1,$2,$3*
1,1,$1+$1,$4,$5*
1,1,$1+$1,$6,$7*
1,1,$1+$1,$8,$9*
0 Add four rect primitives between the rounded corners*
20,1,$1+$1,$2,$3,$4,$5,0*
20,1,$1+$1,$4,$5,$6,$7,0*
20,1,$1+$1,$6,$7,$8,$9,0*
20,1,$1+$1,$8,$9,$2,$3,0*%
G04 Aperture macros list end*
%ADD10R,1.905000X2.000000*%
%ADD11O,1.905000X2.000000*%
%ADD12RoundRect,0.250000X-0.312500X-0.625000X0.312500X-0.625000X0.312500X0.625000X-0.312500X0.625000X0*%
%ADD13R,1.700000X1.700000*%
%ADD14C,1.700000*%
%ADD15RoundRect,0.243750X-0.243750X-0.456250X0.243750X-0.456250X0.243750X0.456250X-0.243750X0.456250X0*%
%ADD16RoundRect,0.250000X-0.325000X-1.100000X0.325000X-1.100000X0.325000X1.100000X-0.325000X1.100000X0*%
%ADD17R,1.600000X1.600000*%
%ADD18O,1.600000X1.600000*%
G04 APERTURE END LIST*
D10*
%TO.C,U1*%
X112920000Y-124000000D03*
D11*
X115460000Y-124000000D03*
X118000000Y-124000000D03*
%TD*%
D12*
%TO.C,R2*%
X140537500Y-126355000D03*
X143462500Y-126355000D03*
%TD*%
%TO.C,R1*%
X141537500Y-119000000D03*
X144462500Y-119000000D03*
%TD*%
D13*
%TO.C,J2*%
X126000000Y-130000000D03*
D14*
X126000000Y-132540000D03*
%TD*%
D13*
%TO.C,J1*%
X126615000Y-114725000D03*
D14*
X126615000Y-117265000D03*
%TD*%
D15*
%TO.C,D2*%
X148062500Y-126000000D03*
X149937500Y-126000000D03*
%TD*%
%TO.C,D1*%
X148062500Y-119000000D03*
X149937500Y-119000000D03*
%TD*%
D16*
%TO.C,C2*%
X117525000Y-130000000D03*
X120475000Y-130000000D03*
%TD*%
%TO.C,C1*%
X112525000Y-129465000D03*
X115475000Y-129465000D03*
%TD*%
D17*
%TO.C,A1*%
X144280000Y-55870000D03*
D18*
X146820000Y-55870000D03*
X149360000Y-55870000D03*
X151900000Y-55870000D03*
X154440000Y-55870000D03*
X156980000Y-55870000D03*
X159520000Y-55870000D03*
X162060000Y-55870000D03*
X167140000Y-55870000D03*
X169680000Y-55870000D03*
X172220000Y-55870000D03*
X174760000Y-55870000D03*
X177300000Y-55870000D03*
X179840000Y-55870000D03*
X179840000Y-104130000D03*
X177300000Y-104130000D03*
X174760000Y-104130000D03*
X172220000Y-104130000D03*
X169680000Y-104130000D03*
X167140000Y-104130000D03*
X164600000Y-104130000D03*
X162060000Y-104130000D03*
X158000000Y-104130000D03*
X155460000Y-104130000D03*
X152920000Y-104130000D03*
X150380000Y-104130000D03*
X147840000Y-104130000D03*
X145300000Y-104130000D03*
X142760000Y-104130000D03*
X140220000Y-104130000D03*
X137680000Y-104130000D03*
X135140000Y-104130000D03*
%TD*%
M02*
