%TF.GenerationSoftware,KiCad,Pcbnew,10.0.3*%
%TF.CreationDate,2026-06-25T13:14:46+05:30*%
%TF.ProjectId,PCB_1_Multisheet_Schematic,5043425f-315f-44d7-956c-746973686565,rev?*%
%TF.SameCoordinates,Original*%
%TF.FileFunction,Copper,L1,Top*%
%TF.FilePolarity,Positive*%
%FSLAX46Y46*%
G04 Gerber Fmt 4.6, Leading zero omitted, Abs format (unit mm)*
G04 Created by KiCad (PCBNEW 10.0.3) date 2026-06-25 13:14:46*
%MOMM*%
%LPD*%
G01*
G04 APERTURE LIST*
G04 Aperture macros list*
%AMRoundRect*
0 Rectangle with rounded corners*
0 $1 Rounding radius*
0 $2 $3 $4 $5 $6 $7 $8 $9 X,Y pos of 4 corners*
0 Add a 4 corners polygon primitive as box body*
4,1,4,$2,$3,$4,$5,$6,$7,$8,$9,$2,$3,0*
0 Add four circle primitives for the rounded corners*
1,1,$1+$1,$2,$3*
1,1,$1+$1,$4,$5*
1,1,$1+$1,$6,$7*
1,1,$1+$1,$8,$9*
0 Add four rect primitives between the rounded corners*
20,1,$1+$1,$2,$3,$4,$5,0*
20,1,$1+$1,$4,$5,$6,$7,0*
20,1,$1+$1,$6,$7,$8,$9,0*
20,1,$1+$1,$8,$9,$2,$3,0*%
G04 Aperture macros list end*
%TA.AperFunction,ComponentPad*%
%ADD10R,1.905000X2.000000*%
%TD*%
%TA.AperFunction,ComponentPad*%
%ADD11O,1.905000X2.000000*%
%TD*%
%TA.AperFunction,SMDPad,CuDef*%
%ADD12RoundRect,0.250000X-0.312500X-0.625000X0.312500X-0.625000X0.312500X0.625000X-0.312500X0.625000X0*%
%TD*%
%TA.AperFunction,ComponentPad*%
%ADD13R,1.700000X1.700000*%
%TD*%
%TA.AperFunction,ComponentPad*%
%ADD14C,1.700000*%
%TD*%
%TA.AperFunction,SMDPad,CuDef*%
%ADD15RoundRect,0.243750X-0.243750X-0.456250X0.243750X-0.456250X0.243750X0.456250X-0.243750X0.456250X0*%
%TD*%
%TA.AperFunction,SMDPad,CuDef*%
%ADD16RoundRect,0.250000X-0.325000X-1.100000X0.325000X-1.100000X0.325000X1.100000X-0.325000X1.100000X0*%
%TD*%
%TA.AperFunction,ComponentPad*%
%ADD17R,1.600000X1.600000*%
%TD*%
%TA.AperFunction,ComponentPad*%
%ADD18O,1.600000X1.600000*%
%TD*%
%TA.AperFunction,ViaPad*%
%ADD19C,0.600000*%
%TD*%
%TA.AperFunction,Conductor*%
%ADD20C,0.200000*%
%TD*%
G04 APERTURE END LIST*
D10*
%TO.P,U1,1,IN_1*%
%TO.N,/Power/12Vin*%
X112920000Y-124000000D03*
D11*
%TO.P,U1,2,GND_2*%
%TO.N,GND*%
X115460000Y-124000000D03*
%TO.P,U1,3,OUT_3*%
%TO.N,/5Vlocal*%
X118000000Y-124000000D03*
%TD*%
D12*
%TO.P,R2,1*%
%TO.N,MCULed*%
X140537500Y-126355000D03*
%TO.P,R2,2*%
%TO.N,Net-(D2-A)*%
X143462500Y-126355000D03*
%TD*%
%TO.P,R1,1*%
%TO.N,/5Vlocal*%
X141537500Y-119000000D03*
%TO.P,R1,2*%
%TO.N,Net-(D1-A)*%
X144462500Y-119000000D03*
%TD*%
D13*
%TO.P,J2,1,Pin_1_1*%
%TO.N,/5Vlocal*%
X126000000Y-130000000D03*
D14*
%TO.P,J2,2,Pin_2_2*%
%TO.N,GND*%
X126000000Y-132540000D03*
%TD*%
D13*
%TO.P,J1,1,Pin_1_1*%
%TO.N,/Power/12Vin*%
X126615000Y-114725000D03*
D14*
%TO.P,J1,2,Pin_2_2*%
%TO.N,GND*%
X126615000Y-117265000D03*
%TD*%
D15*
%TO.P,D2,1,K_1*%
%TO.N,GND*%
X148062500Y-126000000D03*
%TO.P,D2,2,A_2*%
%TO.N,Net-(D2-A)*%
X149937500Y-126000000D03*
%TD*%
%TO.P,D1,1,K_1*%
%TO.N,GND*%
X148062500Y-119000000D03*
%TO.P,D1,2,A_2*%
%TO.N,Net-(D1-A)*%
X149937500Y-119000000D03*
%TD*%
D16*
%TO.P,C2,1*%
%TO.N,/5Vlocal*%
X117525000Y-130000000D03*
%TO.P,C2,2*%
%TO.N,GND*%
X120475000Y-130000000D03*
%TD*%
%TO.P,C1,1*%
%TO.N,/Power/12Vin*%
X112525000Y-129465000D03*
%TO.P,C1,2*%
%TO.N,GND*%
X115475000Y-129465000D03*
%TD*%
D17*
%TO.P,A1,1,NC_1*%
%TO.N,unconnected-(A1-NC-Pad1)*%
X144280000Y-55870000D03*
D18*
%TO.P,A1,2,IOREF_2*%
%TO.N,unconnected-(A1-IOREF-Pad2)*%
X146820000Y-55870000D03*
%TO.P,A1,3,~{RESET}_3*%
%TO.N,unconnected-(A1-~{RESET}-Pad3)*%
X149360000Y-55870000D03*
%TO.P,A1,4,3V3_4*%
%TO.N,unconnected-(A1-3V3-Pad4)*%
X151900000Y-55870000D03*
%TO.P,A1,5,+5V_5*%
%TO.N,unconnected-(A1-+5V-Pad5)*%
X154440000Y-55870000D03*
%TO.P,A1,6,GND_6*%
%TO.N,GND*%
X156980000Y-55870000D03*
%TO.P,A1,7,GND_7*%
X159520000Y-55870000D03*
%TO.P,A1,8,VIN_8*%
%TO.N,/5Vlocal*%
X162060000Y-55870000D03*
%TO.P,A1,9,A0_9*%
%TO.N,MCULed*%
X167140000Y-55870000D03*
%TO.P,A1,10,A1_10*%
%TO.N,unconnected-(A1-A1-Pad10)*%
X169680000Y-55870000D03*
%TO.P,A1,11,A2_11*%
%TO.N,unconnected-(A1-A2-Pad11)*%
X172220000Y-55870000D03*
%TO.P,A1,12,A3_12*%
%TO.N,unconnected-(A1-A3-Pad12)*%
X174760000Y-55870000D03*
%TO.P,A1,13,SDA/A4_13*%
%TO.N,unconnected-(A1-SDA{slash}A4-Pad13)*%
X177300000Y-55870000D03*
%TO.P,A1,14,SCL/A5_14*%
%TO.N,unconnected-(A1-SCL{slash}A5-Pad14)*%
X179840000Y-55870000D03*
%TO.P,A1,15,D0/RX_15*%
%TO.N,unconnected-(A1-D0{slash}RX-Pad15)*%
X179840000Y-104130000D03*
%TO.P,A1,16,D1/TX_16*%
%TO.N,unconnected-(A1-D1{slash}TX-Pad16)*%
X177300000Y-104130000D03*
%TO.P,A1,17,D2_17*%
%TO.N,unconnected-(A1-D2-Pad17)*%
X174760000Y-104130000D03*
%TO.P,A1,18,D3_18*%
%TO.N,unconnected-(A1-D3-Pad18)*%
X172220000Y-104130000D03*
%TO.P,A1,19,D4_19*%
%TO.N,unconnected-(A1-D4-Pad19)*%
X169680000Y-104130000D03*
%TO.P,A1,20,D5_20*%
%TO.N,unconnected-(A1-D5-Pad20)*%
X167140000Y-104130000D03*
%TO.P,A1,21,D6_21*%
%TO.N,unconnected-(A1-D6-Pad21)*%
X164600000Y-104130000D03*
%TO.P,A1,22,D7_22*%
%TO.N,unconnected-(A1-D7-Pad22)*%
X162060000Y-104130000D03*
%TO.P,A1,23,D8_23*%
%TO.N,unconnected-(A1-D8-Pad23)*%
X158000000Y-104130000D03*
%TO.P,A1,24,D9_24*%
%TO.N,unconnected-(A1-D9-Pad24)*%
X155460000Y-104130000D03*
%TO.P,A1,25,D10_25*%
%TO.N,unconnected-(A1-D10-Pad25)*%
X152920000Y-104130000D03*
%TO.P,A1,26,D11_26*%
%TO.N,unconnected-(A1-D11-Pad26)*%
X150380000Y-104130000D03*
%TO.P,A1,27,D12_27*%
%TO.N,unconnected-(A1-D12-Pad27)*%
X147840000Y-104130000D03*
%TO.P,A1,28,D13_28*%
%TO.N,unconnected-(A1-D13-Pad28)*%
X145300000Y-104130000D03*
%TO.P,A1,29,GND_29*%
%TO.N,GND*%
X142760000Y-104130000D03*
%TO.P,A1,30,AREF_30*%
%TO.N,unconnected-(A1-AREF-Pad30)*%
X140220000Y-104130000D03*
%TO.P,A1,31,SDA/A4_31*%
%TO.N,unconnected-(A1-SDA{slash}A4-Pad31)*%
X137680000Y-104130000D03*
%TO.P,A1,32,SCL/A5_32*%
%TO.N,unconnected-(A1-SCL{slash}A5-Pad32)*%
X135140000Y-104130000D03*
%TD*%
D19*
%TO.N,/5Vlocal*%
X144000000Y-112000000D03*
%TO.N,MCULed*%
X147000000Y-110000000D03*
%TO.N,GND*%
X146000000Y-113000000D03*
%TO.N,/5Vlocal*%
X133000000Y-128000000D03*
X121350000Y-128350000D03*
%TO.N,GND*%
X122000000Y-131000000D03*
X124000000Y-128000000D03*
%TO.N,/Power/12Vin*%
X121700000Y-122700000D03*
%TD*%
%TO.N,/5Vlocal*%
D20*
X141537500Y-114462500D02*
X144000000Y-112000000D01*
X141537500Y-119000000D02*
X141537500Y-114462500D01*
%TO.N,MCULed*%
X160000000Y-123000000D02*
X147000000Y-110000000D01*
X160000000Y-133000000D02*
X160000000Y-123000000D01*
X141000000Y-135000000D02*
X158000000Y-135000000D01*
X158000000Y-135000000D02*
X160000000Y-133000000D01*
X140537500Y-134537500D02*
X141000000Y-135000000D01*
X140537500Y-126355000D02*
X140537500Y-134537500D01*
%TO.N,GND*%
X150725000Y-117725000D02*
X146000000Y-113000000D01*
X150725000Y-119688232D02*
X150725000Y-117725000D01*
X150413232Y-120000000D02*
X150725000Y-119688232D01*
X149062500Y-120000000D02*
X150413232Y-120000000D01*
X148062500Y-119000000D02*
X149062500Y-120000000D01*
X148062500Y-119000000D02*
X148062500Y-126000000D01*
%TO.N,Net-(D2-A)*%
X148937500Y-127000000D02*
X149937500Y-126000000D01*
X144107500Y-127000000D02*
X148937500Y-127000000D01*
X143462500Y-126355000D02*
X144107500Y-127000000D01*
%TO.N,Net-(D1-A)*%
X148937500Y-118000000D02*
X149937500Y-119000000D01*
X145462500Y-118000000D02*
X148937500Y-118000000D01*
X144462500Y-119000000D02*
X145462500Y-118000000D01*
%TO.N,/5Vlocal*%
X141537500Y-122260000D02*
X141537500Y-119000000D01*
X135797500Y-128000000D02*
X141537500Y-122260000D01*
X133000000Y-128000000D02*
X135797500Y-128000000D01*
%TO.N,GND*%
X124000000Y-129565686D02*
X124000000Y-128000000D01*
X122990686Y-130575000D02*
X124000000Y-129565686D01*
X121050000Y-130575000D02*
X122990686Y-130575000D01*
%TO.N,/Power/12Vin*%
X114220000Y-122700000D02*
X121700000Y-122700000D01*
X112920000Y-124000000D02*
X114220000Y-122700000D01*
%TO.N,/5Vlocal*%
X119175000Y-128350000D02*
X121350000Y-128350000D01*
X117525000Y-130000000D02*
X119175000Y-128350000D01*
%TO.N,GND*%
X120475000Y-130000000D02*
X121050000Y-130575000D01*
X121475000Y-131000000D02*
X120475000Y-130000000D01*
X121475000Y-131000000D02*
X122000000Y-131000000D01*
X118825000Y-131650000D02*
X120475000Y-130000000D01*
X116310000Y-131650000D02*
X118825000Y-131650000D01*
X115475000Y-130815000D02*
X116310000Y-131650000D01*
X115475000Y-129465000D02*
X115475000Y-130815000D01*
X115475000Y-124015000D02*
X115460000Y-124000000D01*
X115475000Y-129465000D02*
X115475000Y-124015000D01*
%TO.N,/5Vlocal*%
X118000000Y-124000000D02*
X118000000Y-129525000D01*
X118000000Y-129525000D02*
X117525000Y-130000000D01*
%TO.N,/Power/12Vin*%
X112920000Y-129070000D02*
X112525000Y-129465000D01*
X112920000Y-124000000D02*
X112920000Y-129070000D01*
%TD*%
%TA.AperFunction,Conductor*%
%TO.N,GND*%
G36*
X159054075Y-55677007D02*
G01*
X159020000Y-55804174D01*
X159020000Y-55935826D01*
X159054075Y-56062993D01*
X159086988Y-56120000D01*
X157413012Y-56120000D01*
X157445925Y-56062993D01*
X157480000Y-55935826D01*
X157480000Y-55804174D01*
X157445925Y-55677007D01*
X157413012Y-55620000D01*
X159086988Y-55620000D01*
X159054075Y-55677007D01*
G37*
%TD.AperFunction*%
%TA.AperFunction,Conductor*%
G36*
X209442539Y-50520185D02*
G01*
X209488294Y-50572989D01*
X209499500Y-50624500D01*
X209499500Y-148375500D01*
X209479815Y-148442539D01*
X209427011Y-148488294D01*
X209375500Y-148499500D01*
X90624500Y-148499500D01*
X90557461Y-148479815D01*
X90511706Y-148427011D01*
X90500500Y-148375500D01*
X90500500Y-128314983D01*
X111449500Y-128314983D01*
X111449500Y-130615001D01*
X111449501Y-130615018D01*
X111460000Y-130717796D01*
X111460001Y-130717799D01*
X111515115Y-130884119D01*
X111515186Y-130884334D01*
X111607288Y-131033656D01*
X111731344Y-131157712D01*
X111880666Y-131249814D01*
X112047203Y-131304999D01*
X112149991Y-131315500D01*
X112900008Y-131315499D01*
X112900016Y-131315498D01*
X112900019Y-131315498D01*
X112956302Y-131309748D01*
X113002797Y-131304999D01*
X113169334Y-131249814D01*
X113318656Y-131157712D01*
X113442712Y-131033656D01*
X113534814Y-130884334D01*
X113589999Y-130717797D01*
X113600500Y-130615009D01*
X113600500Y-130614986D01*
X114400001Y-130614986D01*
X114410494Y-130717697D01*
X114465641Y-130884119D01*
X114465643Y-130884124D01*
X114557684Y-131033345D01*
X114681654Y-131157315D01*
X114830875Y-131249356D01*
X114830880Y-131249358D01*
X114997302Y-131304505D01*
X114997309Y-131304506D01*
X115100019Y-131314999D01*
X115224999Y-131314999D01*
X115225000Y-131314998D01*
X115225000Y-129715000D01*
X114400001Y-129715000D01*
X114400001Y-130614986D01*
X113600500Y-130614986D01*
X113600499Y-129273596D01*
X113600499Y-128315013D01*
X114400000Y-128315013D01*
X114400000Y-129215000D01*
X115225000Y-129215000D01*
X115225000Y-127615000D01*
X115100027Y-127615000D01*
X115100012Y-127615001D01*
X114997302Y-127625494D01*
X114830880Y-127680641D01*
X114830875Y-127680643D01*
X114681654Y-127772684D01*
X114557684Y-127896654D01*
X114465643Y-128045875D01*
X114465641Y-128045880D01*
X114410494Y-128212302D01*
X114410493Y-128212309D01*
X114400000Y-128315013D01*
X113600499Y-128315013D01*
X113600499Y-128314998D01*
X113600498Y-128314981D01*
X113589999Y-128212203D01*
X113589998Y-128212200D01*
X113572701Y-128160001D01*
X113534814Y-128045666D01*
X113534811Y-128045661D01*
X113532116Y-128039879D01*
X113520500Y-127987479D01*
X113520500Y-125624499D01*
X113540185Y-125557460D01*
X113592989Y-125511705D01*
X113644500Y-125500499D01*
X113920371Y-125500499D01*
X113920372Y-125500499D01*
X113979983Y-125494091D01*
X114114831Y-125443796D01*
X114230046Y-125357546D01*
X114316296Y-125242331D01*
X114326872Y-125213974D01*
X114368740Y-125158041D01*
X114434204Y-125133622D01*
X114502477Y-125148472D01*
X114515940Y-125156988D01*
X114698723Y-125289788D01*
X114902429Y-125393582D01*
X115119871Y-125464234D01*
X115210000Y-125478509D01*
X115210000Y-124490747D01*
X115247708Y-124512518D01*
X115387591Y-124550000D01*
X115532409Y-124550000D01*
X115672292Y-124512518D01*
X115710000Y-124490747D01*
X115710000Y-125478508D01*
X115800128Y-125464234D01*
X116017570Y-125393582D01*
X116221276Y-125289788D01*
X116406242Y-125155402D01*
X116567905Y-124993739D01*
X116629371Y-124909137D01*
X116684701Y-124866470D01*
X116754314Y-124860491D01*
X116816109Y-124893096D01*
X116830007Y-124909134D01*
X116891714Y-124994066D01*
X117053434Y-125155786D01*
X117238462Y-125290217D01*
X117331795Y-125337772D01*
X117382590Y-125385745D01*
X117399500Y-125448256D01*
X117399500Y-128025500D01*
X117379815Y-128092539D01*
X117327011Y-128138294D01*
X117275501Y-128149500D01*
X117149999Y-128149500D01*
X117149980Y-128149501D01*
X117047203Y-128160000D01*
X117047200Y-128160001D01*
X116880668Y-128215185D01*
X116880659Y-128215189D01*
X116728357Y-128309130D01*
X116660965Y-128327570D01*
X116594301Y-128306647D01*
X116549532Y-128253005D01*
X116539903Y-128216189D01*
X116539506Y-128212303D01*
X116484358Y-128045880D01*
X116484356Y-128045875D01*
X116392315Y-127896654D01*
X116268345Y-127772684D01*
X116119124Y-127680643D01*
X116119119Y-127680641D01*
X115952697Y-127625494D01*
X115952690Y-127625493D01*
X115849986Y-127615000D01*
X115725000Y-127615000D01*
X115725000Y-131314999D01*
X115849972Y-131314999D01*
X115849986Y-131314998D01*
X115952697Y-131304505D01*
X116119119Y-131249358D01*
X116119130Y-131249353D01*
X116271111Y-131155610D01*
X116338503Y-131137169D01*
X116405167Y-131158091D01*
X116449936Y-131211733D01*
X116459565Y-131248537D01*
X116460000Y-131252792D01*
X116460001Y-131252799D01*
X116504411Y-131386818D01*
X116515186Y-131419334D01*
X116607288Y-131568656D01*
X116731344Y-131692712D01*
X116880666Y-131784814D01*
X117047203Y-131839999D01*
X117149991Y-131850500D01*
X117900008Y-131850499D01*
X117900016Y-131850498D01*
X117900019Y-131850498D01*
X117956302Y-131844748D01*
X118002797Y-131839999D01*
X118169334Y-131784814D01*
X118318656Y-131692712D01*
X118442712Y-131568656D01*
X118534814Y-131419334D01*
X118589999Y-131252797D01*
X118600500Y-131150009D01*
X118600500Y-131149986D01*
X119400001Y-131149986D01*
X119410494Y-131252697D01*
X119465641Y-131419119D01*
X119465643Y-131419124D01*
X119557684Y-131568345D01*
X119681654Y-131692315D01*
X119830875Y-131784356D01*
X119830880Y-131784358D01*
X119997302Y-131839505D01*
X119997309Y-131839506D01*
X120100019Y-131849999D01*
X120224999Y-131849999D01*
X120725000Y-131849999D01*
X120849972Y-131849999D01*
X120849986Y-131849998D01*
X120952697Y-131839505D01*
X121119119Y-131784358D01*
X121119124Y-131784356D01*
X121268345Y-131692315D01*
X121392315Y-131568345D01*
X121484356Y-131419124D01*
X121484358Y-131419119D01*
X121539505Y-131252697D01*
X121539506Y-131252690D01*
X121549999Y-131149986D01*
X121550000Y-131149973D01*
X121550000Y-130250000D01*
X120725000Y-130250000D01*
X120725000Y-131849999D01*
X120224999Y-131849999D01*
X120225000Y-131849998D01*
X120225000Y-130250000D01*
X119400001Y-130250000D01*
X119400001Y-131149986D01*
X118600500Y-131149986D01*
X118600499Y-129825095D01*
X118620184Y-129758057D01*
X118636813Y-129737420D01*
X119188320Y-129185914D01*
X119249642Y-129152430D01*
X119319334Y-129157414D01*
X119375267Y-129199286D01*
X119399684Y-129264750D01*
X119400000Y-129273596D01*
X119400000Y-129750000D01*
X121549999Y-129750000D01*
X121549999Y-129216466D01*
X121553924Y-129203098D01*
X121553035Y-129189196D01*
X121563573Y-129170237D01*
X121569684Y-129149427D01*
X121580904Y-129139058D01*
X121586981Y-129128127D01*
X121607327Y-129114642D01*
X121615393Y-129107189D01*
X121620828Y-129104273D01*
X121625990Y-129102135D01*
X124649500Y-129102135D01*
X124649500Y-130897870D01*
X124649501Y-130897876D01*
X124655908Y-130957483D01*
X124706202Y-131092328D01*
X124706206Y-131092335D01*
X124792452Y-131207544D01*
X124792455Y-131207547D01*
X124907664Y-131293793D01*
X124907671Y-131293797D01*
X124936381Y-131304505D01*
X125042517Y-131344091D01*
X125102127Y-131350500D01*
X125112685Y-131350499D01*
X125179723Y-131370179D01*
X125200372Y-131386818D01*
X125870591Y-132057037D01*
X125807007Y-132074075D01*
X125692993Y-132139901D01*
X125599901Y-132232993D01*
X125534075Y-132347007D01*
X125517037Y-132410591D01*
X124884728Y-131778282D01*
X124884727Y-131778282D01*
X124845380Y-131832439D01*
X124748904Y-132021782D01*
X124683242Y-132223869D01*
X124683242Y-132223872D01*
X124650000Y-132433753D01*
X124650000Y-132646246D01*
X124683242Y-132856127D01*
X124683242Y-132856130D01*
X124748904Y-133058217D01*
X124845375Y-133247550D01*
X124884728Y-133301716D01*
X125517037Y-132669408D01*
X125534075Y-132732993D01*
X125599901Y-132847007D01*
X125692993Y-132940099D01*
X125807007Y-133005925D01*
X125870590Y-133022962D01*
X125238282Y-133655269D01*
X125238282Y-133655270D01*
X125292449Y-133694624D01*
X125481782Y-133791095D01*
X125683870Y-133856757D01*
X125893754Y-133890000D01*
X126106246Y-133890000D01*
X126316127Y-133856757D01*
X126316130Y-133856757D01*
X126518217Y-133791095D01*
X126707554Y-133694622D01*
X126761716Y-133655270D01*
X126761717Y-133655270D01*
X126129408Y-133022962D01*
X126192993Y-133005925D01*
X126307007Y-132940099D01*
X126400099Y-132847007D01*
X126465925Y-132732993D01*
X126482962Y-132669408D01*
X127115270Y-133301717D01*
X127115270Y-133301716D01*
X127154622Y-133247554D01*
X127251095Y-133058217D01*
X127316757Y-132856130D01*
X127316757Y-132856127D01*
X127350000Y-132646246D01*
X127350000Y-132433753D01*
X127316757Y-132223872D01*
X127316757Y-132223869D01*
X127251095Y-132021782D01*
X127154624Y-131832449D01*
X127115270Y-131778282D01*
X127115269Y-131778282D01*
X126482962Y-132410590D01*
X126465925Y-132347007D01*
X126400099Y-132232993D01*
X126307007Y-132139901D01*
X126192993Y-132074075D01*
X126129409Y-132057037D01*
X126799627Y-131386818D01*
X126860950Y-131353333D01*
X126887307Y-131350499D01*
X126897872Y-131350499D01*
X126957483Y-131344091D01*
X127092331Y-131293796D01*
X127207546Y-131207546D01*
X127293796Y-131092331D01*
X127344091Y-130957483D01*
X127350500Y-130897873D01*
X127350499Y-129102128D01*
X127344091Y-129042517D01*
X127293796Y-128907669D01*
X127293795Y-128907668D01*
X127293793Y-128907664D01*
X127207547Y-128792455D01*
X127207544Y-128792452D01*
X127092335Y-128706206D01*
X127092328Y-128706202D01*
X126957482Y-128655908D01*
X126957483Y-128655908D01*
X126897883Y-128649501D01*
X126897881Y-128649500D01*
X126897873Y-128649500D01*
X126897864Y-128649500D01*
X125102129Y-128649500D01*
X125102123Y-128649501D01*
X125042516Y-128655908D01*
X124907671Y-128706202D01*
X124907664Y-128706206D01*
X124792455Y-128792452D01*
X124792452Y-128792455D01*
X124706206Y-128907664D01*
X124706202Y-128907671D01*
X124655908Y-129042517D01*
X124654094Y-129059394D01*
X124649501Y-129102123D01*
X124649500Y-129102135D01*
X121625990Y-129102135D01*
X121729179Y-129059394D01*
X121860289Y-128971789D01*
X121971789Y-128860289D01*
X122059394Y-128729179D01*
X122068911Y-128706204D01*
X122089743Y-128655909D01*
X122119737Y-128583497D01*
X122150500Y-128428842D01*
X122150500Y-128271158D01*
X122150500Y-128271155D01*
X122150499Y-128271153D01*
X122146889Y-128253005D01*
X122119737Y-128116503D01*
X122104139Y-128078846D01*
X122059394Y-127970820D01*
X122026207Y-127921153D01*
X132199500Y-127921153D01*
X132199500Y-128078846D01*
X132230261Y-128233489D01*
X132230264Y-128233501D01*
X132290602Y-128379172D01*
X132290609Y-128379185D01*
X132378210Y-128510288D01*
X132378213Y-128510292D01*
X132489707Y-128621786D01*
X132489711Y-128621789D01*
X132620814Y-128709390D01*
X132620827Y-128709397D01*
X132766498Y-128769735D01*
X132766503Y-128769737D01*
X132921153Y-128800499D01*
X132921156Y-128800500D01*
X132921158Y-128800500D01*
X133078844Y-128800500D01*
X133078845Y-128800499D01*
X133233497Y-128769737D01*
X133379179Y-128709394D01*
X133459225Y-128655909D01*
X133510875Y-128621398D01*
X133577553Y-128600520D01*
X133579766Y-128600500D01*
X135710831Y-128600500D01*
X135710847Y-128600501D01*
X135718443Y-128600501D01*
X135876554Y-128600501D01*
X135876557Y-128600501D01*
X136029285Y-128559577D01*
X136114420Y-128510424D01*
X136166216Y-128480520D01*
X136278020Y-128368716D01*
X136278020Y-128368714D01*
X136288224Y-128358511D01*
X136288228Y-128358506D01*
X139320947Y-125325786D01*
X139382268Y-125292303D01*
X139451960Y-125297287D01*
X139507893Y-125339159D01*
X139532310Y-125404623D01*
X139526332Y-125452472D01*
X139485001Y-125577200D01*
X139485000Y-125577204D01*
X139474500Y-125679983D01*
X139474500Y-127030001D01*
X139474501Y-127030018D01*
X139485000Y-127132796D01*
X139485001Y-127132799D01*
X139508320Y-127203169D01*
X139540186Y-127299334D01*
X139632288Y-127448656D01*
X139756344Y-127572712D01*
X139878097Y-127647809D01*
X139924821Y-127699755D01*
X139937000Y-127753347D01*
X139937000Y-134450830D01*
X139936999Y-134450848D01*
X139936999Y-134616554D01*
X139936998Y-134616554D01*
X139977923Y-134769285D01*
X140006858Y-134819400D01*
X140006859Y-134819404D01*
X140006860Y-134819404D01*
X140056980Y-134906216D01*
X140168784Y-135018020D01*
X140168785Y-135018021D01*
X140631284Y-135480520D01*
X140631286Y-135480521D01*
X140631290Y-135480524D01*
X140768209Y-135559573D01*
X140768216Y-135559577D01*
X140920943Y-135600501D01*
X140920945Y-135600501D01*
X141086654Y-135600501D01*
X141086670Y-135600500D01*
X157913331Y-135600500D01*
X157913347Y-135600501D01*
X157920943Y-135600501D01*
X158079054Y-135600501D01*
X158079057Y-135600501D01*
X158231785Y-135559577D01*
X158281904Y-135530639D01*
X158368716Y-135480520D01*
X158480520Y-135368716D01*
X158480520Y-135368714D01*
X158490728Y-135358507D01*
X158490730Y-135358504D01*
X160368713Y-133480521D01*
X160368716Y-133480520D01*
X160480520Y-133368716D01*
X160530639Y-133281904D01*
X160559577Y-133231785D01*
X160600500Y-133079057D01*
X160600500Y-132920943D01*
X160600500Y-122920943D01*
X160592884Y-122892517D01*
X160559577Y-122768215D01*
X160525841Y-122709783D01*
X160480520Y-122631284D01*
X160368716Y-122519480D01*
X160368715Y-122519479D01*
X160364385Y-122515149D01*
X160364374Y-122515139D01*
X147834574Y-109985339D01*
X147801089Y-109924016D01*
X147800638Y-109921849D01*
X147769738Y-109766510D01*
X147769737Y-109766503D01*
X147769735Y-109766498D01*
X147709397Y-109620827D01*
X147709390Y-109620814D01*
X147621789Y-109489711D01*
X147621786Y-109489707D01*
X147510292Y-109378213D01*
X147510288Y-109378210D01*
X147379185Y-109290609D01*
X147379172Y-109290602D01*
X147233501Y-109230264D01*
X147233489Y-109230261D01*
X147078845Y-109199500D01*
X147078842Y-109199500D01*
X146921158Y-109199500D01*
X146921155Y-109199500D01*
X146766510Y-109230261D01*
X146766498Y-109230264D01*
X146620827Y-109290602D01*
X146620814Y-109290609D01*
X146489711Y-109378210D01*
X146489707Y-109378213D01*
X146378213Y-109489707D01*
X146378210Y-109489711D01*
X146290609Y-109620814D01*
X146290602Y-109620827D01*
X146230264Y-109766498D01*
X146230261Y-109766510D01*
X146199500Y-109921153D01*
X146199500Y-110078846D01*
X146230261Y-110233489D01*
X146230264Y-110233501D01*
X146290602Y-110379172D01*
X146290609Y-110379185D01*
X146378210Y-110510288D01*
X146378213Y-110510292D01*
X146489707Y-110621786D01*
X146489711Y-110621789D01*
X146620814Y-110709390D01*
X146620827Y-110709397D01*
X146766498Y-110769735D01*
X146766503Y-110769737D01*
X146831147Y-110782595D01*
X146921849Y-110800638D01*
X146983760Y-110833023D01*
X146985339Y-110834574D01*
X159363181Y-123212416D01*
X159396666Y-123273739D01*
X159399500Y-123300097D01*
X159399500Y-132699903D01*
X159379815Y-132766942D01*
X159363181Y-132787584D01*
X157787584Y-134363181D01*
X157726261Y-134396666D01*
X157699903Y-134399500D01*
X141300098Y-134399500D01*
X141270657Y-134390855D01*
X141240671Y-134384332D01*
X141235655Y-134380577D01*
X141233059Y-134379815D01*
X141212417Y-134363181D01*
X141174319Y-134325083D01*
X141140834Y-134263760D01*
X141138000Y-134237402D01*
X141138000Y-127753347D01*
X141157685Y-127686308D01*
X141196901Y-127647810D01*
X141318656Y-127572712D01*
X141442712Y-127448656D01*
X141534814Y-127299334D01*
X141589999Y-127132797D01*
X141600500Y-127030009D01*
X141600499Y-125679992D01*
X141600498Y-125679983D01*
X142399500Y-125679983D01*
X142399500Y-127030001D01*
X142399501Y-127030018D01*
X142410000Y-127132796D01*
X142410001Y-127132799D01*
X142433320Y-127203169D01*
X142465186Y-127299334D01*
X142557288Y-127448656D01*
X142681344Y-127572712D01*
X142830666Y-127664814D01*
X142997203Y-127719999D01*
X143099991Y-127730500D01*
X143825008Y-127730499D01*
X143825016Y-127730498D01*
X143825019Y-127730498D01*
X143881302Y-127724748D01*
X143927797Y-127719999D01*
X144094334Y-127664814D01*
X144133588Y-127640602D01*
X144168675Y-127618961D01*
X144233771Y-127600500D01*
X148850831Y-127600500D01*
X148850847Y-127600501D01*
X148858443Y-127600501D01*
X149016554Y-127600501D01*
X149016557Y-127600501D01*
X149169285Y-127559577D01*
X149219404Y-127530639D01*
X149306216Y-127480520D01*
X149418020Y-127368716D01*
X149418020Y-127368714D01*
X149428228Y-127358507D01*
X149428230Y-127358504D01*
X149550081Y-127236652D01*
X149611402Y-127203169D01*
X149640995Y-127200748D01*
X149640995Y-127200500D01*
X149644027Y-127200500D01*
X149644076Y-127200496D01*
X149644149Y-127200499D01*
X149644152Y-127200500D01*
X149644154Y-127200500D01*
X150230843Y-127200500D01*
X150230848Y-127200500D01*
X150332775Y-127190087D01*
X150497925Y-127135362D01*
X150646003Y-127044026D01*
X150769026Y-126921003D01*
X150860362Y-126772925D01*
X150915087Y-126607775D01*
X150925500Y-126505848D01*
X150925500Y-125494152D01*
X150915087Y-125392225D01*
X150860362Y-125227075D01*
X150860358Y-125227069D01*
X150860357Y-125227066D01*
X150769028Y-125079000D01*
X150769025Y-125078996D01*
X150646003Y-124955974D01*
X150645999Y-124955971D01*
X150497933Y-124864642D01*
X150497927Y-124864639D01*
X150497925Y-124864638D01*
X150381157Y-124825945D01*
X150332776Y-124809913D01*
X150230855Y-124799500D01*
X150230848Y-124799500D01*
X149644152Y-124799500D01*
X149644144Y-124799500D01*
X149542223Y-124809913D01*
X149377077Y-124864637D01*
X149377066Y-124864642D01*
X149229000Y-124955971D01*
X149228996Y-124955974D01*
X149105974Y-125078996D01*
X149105967Y-125079005D01*
X149105234Y-125080194D01*
X149104519Y-125080836D01*
X149101493Y-125084664D01*
X149100838Y-125084146D01*
X149053280Y-125126911D01*
X148984316Y-125138123D01*
X148920238Y-125110271D01*
X148898238Y-125084877D01*
X148898112Y-125084977D01*
X148895885Y-125082161D01*
X148894163Y-125080173D01*
X148893630Y-125079309D01*
X148770691Y-124956370D01*
X148622714Y-124865096D01*
X148622709Y-124865094D01*
X148457673Y-124810407D01*
X148355815Y-124800000D01*
X148312500Y-124800000D01*
X148312500Y-125876000D01*
X148292815Y-125943039D01*
X148240011Y-125988794D01*
X148188500Y-126000000D01*
X148062500Y-126000000D01*
X148062500Y-126126000D01*
X148042815Y-126193039D01*
X147990011Y-126238794D01*
X147938500Y-126250000D01*
X147075000Y-126250000D01*
X147075000Y-126275500D01*
X147055315Y-126342539D01*
X147002511Y-126388294D01*
X146951000Y-126399500D01*
X144649500Y-126399500D01*
X144582461Y-126379815D01*
X144536706Y-126327011D01*
X144525500Y-126275500D01*
X144525499Y-125679998D01*
X144525498Y-125679980D01*
X144514999Y-125577203D01*
X144508457Y-125557460D01*
X144487489Y-125494184D01*
X147075000Y-125494184D01*
X147075000Y-125750000D01*
X147812500Y-125750000D01*
X147812500Y-124800000D01*
X147769184Y-124800000D01*
X147667326Y-124810407D01*
X147502290Y-124865094D01*
X147502285Y-124865096D01*
X147354308Y-124956370D01*
X147231370Y-125079308D01*
X147140096Y-125227285D01*
X147140094Y-125227290D01*
X147085407Y-125392326D01*
X147075000Y-125494184D01*
X144487489Y-125494184D01*
X144459814Y-125410666D01*
X144367712Y-125261344D01*
X144243656Y-125137288D01*
X144149149Y-125078996D01*
X144094336Y-125045187D01*
X144094331Y-125045185D01*
X144052525Y-125031332D01*
X143927797Y-124990001D01*
X143927795Y-124990000D01*
X143825010Y-124979500D01*
X143099998Y-124979500D01*
X143099980Y-124979501D01*
X142997203Y-124990000D01*
X142997200Y-124990001D01*
X142830668Y-125045185D01*
X142830663Y-125045187D01*
X142681342Y-125137289D01*
X142557289Y-125261342D01*
X142465187Y-125410663D01*
X142465186Y-125410666D01*
X142410001Y-125577203D01*
X142410001Y-125577204D01*
X142410000Y-125577204D01*
X142399500Y-125679983D01*
X141600498Y-125679983D01*
X141589999Y-125577203D01*
X141534814Y-125410666D01*
X141442712Y-125261344D01*
X141318656Y-125137288D01*
X141224149Y-125078996D01*
X141169336Y-125045187D01*
X141169331Y-125045185D01*
X141127525Y-125031332D01*
X141002797Y-124990001D01*
X141002795Y-124990000D01*
X140900010Y-124979500D01*
X140174998Y-124979500D01*
X140174980Y-124979501D01*
X140072203Y-124990000D01*
X140072200Y-124990001D01*
X139947473Y-125031332D01*
X139877644Y-125033734D01*
X139817603Y-124998002D01*
X139786410Y-124935481D01*
X139793971Y-124866022D01*
X139820785Y-124825948D01*
X141896006Y-122750728D01*
X141896011Y-122750724D01*
X141906214Y-122740520D01*
X141906216Y-122740520D01*
X142018020Y-122628716D01*
X142081087Y-122519480D01*
X142097077Y-122491785D01*
X142138001Y-122339057D01*
X142138001Y-122180943D01*
X142138001Y-122173348D01*
X142138000Y-122173330D01*
X142138000Y-120398347D01*
X142157685Y-120331308D01*
X142196901Y-120292810D01*
X142318656Y-120217712D01*
X142442712Y-120093656D01*
X142534814Y-119944334D01*
X142589999Y-119777797D01*
X142600500Y-119675009D01*
X142600499Y-118324992D01*
X142600498Y-118324983D01*
X143399500Y-118324983D01*
X143399500Y-119675001D01*
X143399501Y-119675018D01*
X143410000Y-119777796D01*
X143410001Y-119777799D01*
X143457455Y-119921003D01*
X143465186Y-119944334D01*
X143557288Y-120093656D01*
X143681344Y-120217712D01*
X143830666Y-120309814D01*
X143997203Y-120364999D01*
X144099991Y-120375500D01*
X144825008Y-120375499D01*
X144825016Y-120375498D01*
X144825019Y-120375498D01*
X144881302Y-120369748D01*
X144927797Y-120364999D01*
X145094334Y-120309814D01*
X145243656Y-120217712D01*
X145367712Y-120093656D01*
X145459814Y-119944334D01*
X145514999Y-119777797D01*
X145525500Y-119675009D01*
X145525500Y-119505815D01*
X147075000Y-119505815D01*
X147085407Y-119607673D01*
X147140094Y-119772709D01*
X147140096Y-119772714D01*
X147231370Y-119920691D01*
X147354308Y-120043629D01*
X147502285Y-120134903D01*
X147502290Y-120134905D01*
X147667326Y-120189592D01*
X147769184Y-120199999D01*
X147769197Y-120200000D01*
X147812500Y-120200000D01*
X147812500Y-119250000D01*
X147075000Y-119250000D01*
X147075000Y-119505815D01*
X145525500Y-119505815D01*
X145525499Y-118837597D01*
X145534143Y-118808157D01*
X145540667Y-118778171D01*
X145544421Y-118773155D01*
X145545184Y-118770559D01*
X145561813Y-118749922D01*
X145674918Y-118636817D01*
X145736240Y-118603334D01*
X145762598Y-118600500D01*
X146951000Y-118600500D01*
X147018039Y-118620185D01*
X147063794Y-118672989D01*
X147075000Y-118724500D01*
X147075000Y-118750000D01*
X147938500Y-118750000D01*
X148005539Y-118769685D01*
X148051294Y-118822489D01*
X148062500Y-118874000D01*
X148062500Y-119000000D01*
X148188500Y-119000000D01*
X148255539Y-119019685D01*
X148301294Y-119072489D01*
X148312500Y-119124000D01*
X148312500Y-120200000D01*
X148355803Y-120200000D01*
X148355815Y-120199999D01*
X148457673Y-120189592D01*
X148622709Y-120134905D01*
X148622714Y-120134903D01*
X148770691Y-120043629D01*
X148893628Y-119920692D01*
X148894159Y-119919832D01*
X148894680Y-119919363D01*
X148898112Y-119915023D01*
X148898853Y-119915608D01*
X148946101Y-119873102D01*
X149015063Y-119861872D01*
X149079148Y-119889708D01*
X149101413Y-119915398D01*
X149101493Y-119915336D01*
X149102890Y-119917103D01*
X149105238Y-119919812D01*
X149105968Y-119920995D01*
X149105974Y-119921003D01*
X149228996Y-120044025D01*
X149229000Y-120044028D01*
X149377066Y-120135357D01*
X149377069Y-120135358D01*
X149377075Y-120135362D01*
X149542225Y-120190087D01*
X149644152Y-120200500D01*
X149644157Y-120200500D01*
X150230843Y-120200500D01*
X150230848Y-120200500D01*
X150332775Y-120190087D01*
X150497925Y-120135362D01*
X150646003Y-120044026D01*
X150769026Y-119921003D01*
X150860362Y-119772925D01*
X150915087Y-119607775D01*
X150925500Y-119505848D01*
X150925500Y-118494152D01*
X150915087Y-118392225D01*
X150860362Y-118227075D01*
X150860358Y-118227069D01*
X150860357Y-118227066D01*
X150769028Y-118079000D01*
X150769025Y-118078996D01*
X150646003Y-117955974D01*
X150645999Y-117955971D01*
X150497933Y-117864642D01*
X150497927Y-117864639D01*
X150497925Y-117864638D01*
X150497922Y-117864637D01*
X150332776Y-117809913D01*
X150230855Y-117799500D01*
X150230848Y-117799500D01*
X149644152Y-117799500D01*
X149644138Y-117799500D01*
X149644039Y-117799505D01*
X149644018Y-117799500D01*
X149640996Y-117799500D01*
X149640996Y-117798776D01*
X149611254Y-117791657D01*
X149578334Y-117784496D01*
X149576922Y-117783439D01*
X149576089Y-117783240D01*
X149550080Y-117763345D01*
X149425090Y-117638355D01*
X149425088Y-117638352D01*
X149306217Y-117519481D01*
X149306216Y-117519480D01*
X149219404Y-117469360D01*
X149219404Y-117469359D01*
X149219400Y-117469358D01*
X149169285Y-117440423D01*
X149016557Y-117399499D01*
X148858443Y-117399499D01*
X148850847Y-117399499D01*
X148850831Y-117399500D01*
X145549170Y-117399500D01*
X145549154Y-117399499D01*
X145541558Y-117399499D01*
X145383443Y-117399499D01*
X145307079Y-117419961D01*
X145230714Y-117440423D01*
X145230709Y-117440426D01*
X145093790Y-117519475D01*
X145093782Y-117519481D01*
X145015248Y-117598014D01*
X144953925Y-117631499D01*
X144914965Y-117633690D01*
X144825010Y-117624500D01*
X144099998Y-117624500D01*
X144099980Y-117624501D01*
X143997203Y-117635000D01*
X143997200Y-117635001D01*
X143830668Y-117690185D01*
X143830663Y-117690187D01*
X143681342Y-117782289D01*
X143557289Y-117906342D01*
X143465187Y-118055663D01*
X143465186Y-118055666D01*
X143410001Y-118222203D01*
X143410001Y-118222204D01*
X143410000Y-118222204D01*
X143399500Y-118324983D01*
X142600498Y-118324983D01*
X142589999Y-118222203D01*
X142534814Y-118055666D01*
X142442712Y-117906344D01*
X142318656Y-117782288D01*
X142196902Y-117707190D01*
X142150179Y-117655243D01*
X142138000Y-117601652D01*
X142138000Y-114762597D01*
X142157685Y-114695558D01*
X142174319Y-114674916D01*
X143081719Y-113767516D01*
X144014662Y-112834572D01*
X144075983Y-112801089D01*
X144078150Y-112800638D01*
X144136085Y-112789113D01*
X144233497Y-112769737D01*
X144379179Y-112709394D01*
X144510289Y-112621789D01*
X144621789Y-112510289D01*
X144709394Y-112379179D01*
X144769737Y-112233497D01*
X144800500Y-112078842D01*
X144800500Y-111921158D01*
X144800500Y-111921155D01*
X144800499Y-111921153D01*
X144769738Y-111766510D01*
X144769738Y-111766508D01*
X144769737Y-111766503D01*
X144769735Y-111766498D01*
X144709397Y-111620827D01*
X144709390Y-111620814D01*
X144621789Y-111489711D01*
X144621786Y-111489707D01*
X144510292Y-111378213D01*
X144510288Y-111378210D01*
X144379185Y-111290609D01*
X144379172Y-111290602D01*
X144233501Y-111230264D01*
X144233489Y-111230261D01*
X144078845Y-111199500D01*
X144078842Y-111199500D01*
X143921158Y-111199500D01*
X143921155Y-111199500D01*
X143766510Y-111230261D01*
X143766498Y-111230264D01*
X143620827Y-111290602D01*
X143620814Y-111290609D01*
X143489711Y-111378210D01*
X143489707Y-111378213D01*
X143378213Y-111489707D01*
X143378210Y-111489711D01*
X143290609Y-111620814D01*
X143290602Y-111620827D01*
X143230264Y-111766498D01*
X143230261Y-111766508D01*
X143199361Y-111921850D01*
X143166976Y-111983761D01*
X143165425Y-111985339D01*
X141056981Y-114093782D01*
X141056979Y-114093785D01*
X141006861Y-114180594D01*
X141006859Y-114180596D01*
X140977925Y-114230709D01*
X140977924Y-114230710D01*
X140977923Y-114230715D01*
X140936999Y-114383443D01*
X140936999Y-114383445D01*
X140936999Y-114551546D01*
X140937000Y-114551559D01*
X140937000Y-117601652D01*
X140917315Y-117668691D01*
X140878098Y-117707189D01*
X140800835Y-117754845D01*
X140756342Y-117782289D01*
X140632289Y-117906342D01*
X140540187Y-118055663D01*
X140540186Y-118055666D01*
X140485001Y-118222203D01*
X140485001Y-118222204D01*
X140485000Y-118222204D01*
X140474500Y-118324983D01*
X140474500Y-119675001D01*
X140474501Y-119675018D01*
X140485000Y-119777796D01*
X140485001Y-119777799D01*
X140532455Y-119921003D01*
X140540186Y-119944334D01*
X140632288Y-120093656D01*
X140756344Y-120217712D01*
X140878097Y-120292809D01*
X140924821Y-120344755D01*
X140937000Y-120398347D01*
X140937000Y-121959903D01*
X140917315Y-122026942D01*
X140900681Y-122047584D01*
X135585084Y-127363181D01*
X135523761Y-127396666D01*
X135497403Y-127399500D01*
X133579766Y-127399500D01*
X133512727Y-127379815D01*
X133510875Y-127378602D01*
X133379185Y-127290609D01*
X133379172Y-127290602D01*
X133233501Y-127230264D01*
X133233489Y-127230261D01*
X133078845Y-127199500D01*
X133078842Y-127199500D01*
X132921158Y-127199500D01*
X132921155Y-127199500D01*
X132766510Y-127230261D01*
X132766498Y-127230264D01*
X132620827Y-127290602D01*
X132620814Y-127290609D01*
X132489711Y-127378210D01*
X132489707Y-127378213D01*
X132378213Y-127489707D01*
X132378210Y-127489711D01*
X132290609Y-127620814D01*
X132290602Y-127620827D01*
X132230264Y-127766498D01*
X132230261Y-127766510D01*
X132199500Y-127921153D01*
X122026207Y-127921153D01*
X121971789Y-127839711D01*
X121971786Y-127839707D01*
X121860292Y-127728213D01*
X121860288Y-127728210D01*
X121729185Y-127640609D01*
X121729172Y-127640602D01*
X121583501Y-127580264D01*
X121583489Y-127580261D01*
X121428845Y-127549500D01*
X121428842Y-127549500D01*
X121271158Y-127549500D01*
X121271155Y-127549500D01*
X121116510Y-127580261D01*
X121116498Y-127580264D01*
X120970827Y-127640602D01*
X120970814Y-127640609D01*
X120839125Y-127728602D01*
X120772447Y-127749480D01*
X120770234Y-127749500D01*
X119095940Y-127749500D01*
X119055019Y-127760464D01*
X119055019Y-127760465D01*
X119017751Y-127770451D01*
X118943214Y-127790423D01*
X118943209Y-127790426D01*
X118806287Y-127869476D01*
X118799985Y-127874313D01*
X118734815Y-127899506D01*
X118666371Y-127885467D01*
X118616382Y-127836652D01*
X118600500Y-127775936D01*
X118600500Y-125448256D01*
X118620185Y-125381217D01*
X118668204Y-125337772D01*
X118761538Y-125290217D01*
X118946566Y-125155786D01*
X119108286Y-124994066D01*
X119242717Y-124809038D01*
X119346548Y-124605258D01*
X119417222Y-124387745D01*
X119453000Y-124161854D01*
X119453000Y-123838146D01*
X119417222Y-123612255D01*
X119368666Y-123462817D01*
X119366672Y-123392977D01*
X119402752Y-123333144D01*
X119465453Y-123302316D01*
X119486598Y-123300500D01*
X121120234Y-123300500D01*
X121187273Y-123320185D01*
X121189125Y-123321398D01*
X121320814Y-123409390D01*
X121320827Y-123409397D01*
X121418853Y-123450000D01*
X121466503Y-123469737D01*
X121555713Y-123487482D01*
X121621153Y-123500499D01*
X121621156Y-123500500D01*
X121621158Y-123500500D01*
X121778844Y-123500500D01*
X121778845Y-123500499D01*
X121933497Y-123469737D01*
X122079179Y-123409394D01*
X122210289Y-123321789D01*
X122321789Y-123210289D01*
X122409394Y-123079179D01*
X122469737Y-122933497D01*
X122500500Y-122778842D01*
X122500500Y-122621158D01*
X122500500Y-122621155D01*
X122500499Y-122621153D01*
X122477575Y-122505908D01*
X122469737Y-122466503D01*
X122416948Y-122339057D01*
X122409397Y-122320827D01*
X122409390Y-122320814D01*
X122321789Y-122189711D01*
X122321786Y-122189707D01*
X122210292Y-122078213D01*
X122210288Y-122078210D01*
X122079185Y-121990609D01*
X122079172Y-121990602D01*
X121933501Y-121930264D01*
X121933489Y-121930261D01*
X121778845Y-121899500D01*
X121778842Y-121899500D01*
X121621158Y-121899500D01*
X121621155Y-121899500D01*
X121466510Y-121930261D01*
X121466498Y-121930264D01*
X121320827Y-121990602D01*
X121320814Y-121990609D01*
X121189125Y-122078602D01*
X121122447Y-122099480D01*
X121120234Y-122099500D01*
X114306670Y-122099500D01*
X114306654Y-122099499D01*
X114299058Y-122099499D01*
X114140943Y-122099499D01*
X114064579Y-122119961D01*
X113988214Y-122140423D01*
X113988209Y-122140426D01*
X113851290Y-122219475D01*
X113851282Y-122219481D01*
X113607582Y-122463181D01*
X113546259Y-122496666D01*
X113519901Y-122499500D01*
X111919629Y-122499500D01*
X111919623Y-122499501D01*
X111860016Y-122505908D01*
X111725171Y-122556202D01*
X111725164Y-122556206D01*
X111609955Y-122642452D01*
X111609952Y-122642455D01*
X111523706Y-122757664D01*
X111523702Y-122757671D01*
X111473408Y-122892517D01*
X111467001Y-122952116D01*
X111467000Y-122952135D01*
X111467000Y-125047870D01*
X111467001Y-125047876D01*
X111473408Y-125107483D01*
X111523702Y-125242328D01*
X111523706Y-125242335D01*
X111609952Y-125357544D01*
X111609955Y-125357547D01*
X111725164Y-125443793D01*
X111725171Y-125443797D01*
X111770118Y-125460561D01*
X111860017Y-125494091D01*
X111919627Y-125500500D01*
X112195501Y-125500499D01*
X112262539Y-125520183D01*
X112308294Y-125572987D01*
X112319500Y-125624499D01*
X112319500Y-127490500D01*
X112299815Y-127557539D01*
X112247011Y-127603294D01*
X112195503Y-127614500D01*
X112150000Y-127614500D01*
X112149980Y-127614501D01*
X112047203Y-127625000D01*
X112047200Y-127625001D01*
X111880668Y-127680185D01*
X111880663Y-127680187D01*
X111731342Y-127772289D01*
X111607289Y-127896342D01*
X111515187Y-128045663D01*
X111515185Y-128045668D01*
X111504191Y-128078846D01*
X111460001Y-128212203D01*
X111460001Y-128212204D01*
X111460000Y-128212204D01*
X111449500Y-128314983D01*
X90500500Y-128314983D01*
X90500500Y-113827135D01*
X125264500Y-113827135D01*
X125264500Y-115622870D01*
X125264501Y-115622876D01*
X125270908Y-115682483D01*
X125321202Y-115817328D01*
X125321206Y-115817335D01*
X125407452Y-115932544D01*
X125407455Y-115932547D01*
X125522664Y-116018793D01*
X125522671Y-116018797D01*
X125567618Y-116035561D01*
X125657517Y-116069091D01*
X125717127Y-116075500D01*
X125727685Y-116075499D01*
X125794723Y-116095179D01*
X125815372Y-116111818D01*
X126485591Y-116782037D01*
X126422007Y-116799075D01*
X126307993Y-116864901D01*
X126214901Y-116957993D01*
X126149075Y-117072007D01*
X126132037Y-117135591D01*
X125499728Y-116503282D01*
X125499727Y-116503282D01*
X125460380Y-116557439D01*
X125363904Y-116746782D01*
X125298242Y-116948869D01*
X125298242Y-116948872D01*
X125265000Y-117158753D01*
X125265000Y-117371246D01*
X125298242Y-117581127D01*
X125298242Y-117581130D01*
X125363904Y-117783217D01*
X125460375Y-117972550D01*
X125499728Y-118026716D01*
X126132037Y-117394408D01*
X126149075Y-117457993D01*
X126214901Y-117572007D01*
X126307993Y-117665099D01*
X126422007Y-117730925D01*
X126485590Y-117747962D01*
X125853282Y-118380269D01*
X125853282Y-118380270D01*
X125907449Y-118419624D01*
X126096782Y-118516095D01*
X126298870Y-118581757D01*
X126508754Y-118615000D01*
X126721246Y-118615000D01*
X126931127Y-118581757D01*
X126931130Y-118581757D01*
X127133217Y-118516095D01*
X127322554Y-118419622D01*
X127376716Y-118380270D01*
X127376717Y-118380270D01*
X126744408Y-117747962D01*
X126807993Y-117730925D01*
X126922007Y-117665099D01*
X127015099Y-117572007D01*
X127080925Y-117457993D01*
X127097962Y-117394409D01*
X127730270Y-118026717D01*
X127730270Y-118026716D01*
X127769622Y-117972554D01*
X127866095Y-117783217D01*
X127931757Y-117581130D01*
X127931757Y-117581127D01*
X127965000Y-117371246D01*
X127965000Y-117158753D01*
X127931757Y-116948872D01*
X127931757Y-116948869D01*
X127866095Y-116746782D01*
X127769624Y-116557449D01*
X127730270Y-116503282D01*
X127730269Y-116503282D01*
X127097962Y-117135590D01*
X127080925Y-117072007D01*
X127015099Y-116957993D01*
X126922007Y-116864901D01*
X126807993Y-116799075D01*
X126744409Y-116782037D01*
X127414627Y-116111818D01*
X127475950Y-116078333D01*
X127502307Y-116075499D01*
X127512872Y-116075499D01*
X127572483Y-116069091D01*
X127707331Y-116018796D01*
X127822546Y-115932546D01*
X127908796Y-115817331D01*
X127959091Y-115682483D01*
X127965500Y-115622873D01*
X127965499Y-113827128D01*
X127959091Y-113767517D01*
X127908796Y-113632669D01*
X127908795Y-113632668D01*
X127908793Y-113632664D01*
X127822547Y-113517455D01*
X127822544Y-113517452D01*
X127707335Y-113431206D01*
X127707328Y-113431202D01*
X127572482Y-113380908D01*
X127572483Y-113380908D01*
X127512883Y-113374501D01*
X127512881Y-113374500D01*
X127512873Y-113374500D01*
X127512864Y-113374500D01*
X125717129Y-113374500D01*
X125717123Y-113374501D01*
X125657516Y-113380908D01*
X125522671Y-113431202D01*
X125522664Y-113431206D01*
X125407455Y-113517452D01*
X125407452Y-113517455D01*
X125321206Y-113632664D01*
X125321202Y-113632671D01*
X125270908Y-113767517D01*
X125264501Y-113827116D01*
X125264501Y-113827123D01*
X125264500Y-113827135D01*
X90500500Y-113827135D01*
X90500500Y-104027648D01*
X133839500Y-104027648D01*
X133839500Y-104232351D01*
X133871522Y-104434534D01*
X133934781Y-104629223D01*
X134027715Y-104811613D01*
X134148028Y-104977213D01*
X134292786Y-105121971D01*
X134447749Y-105234556D01*
X134458390Y-105242287D01*
X134574607Y-105301503D01*
X134640776Y-105335218D01*
X134640778Y-105335218D01*
X134640781Y-105335220D01*
X134745137Y-105369127D01*
X134835465Y-105398477D01*
X134936557Y-105414488D01*
X135037648Y-105430500D01*
X135037649Y-105430500D01*
X135242351Y-105430500D01*
X135242352Y-105430500D01*
X135444534Y-105398477D01*
X135639219Y-105335220D01*
X135821610Y-105242287D01*
X135914590Y-105174732D01*
X135987213Y-105121971D01*
X135987215Y-105121968D01*
X135987219Y-105121966D01*
X136131966Y-104977219D01*
X136131968Y-104977215D01*
X136131971Y-104977213D01*
X136252284Y-104811614D01*
X136252286Y-104811611D01*
X136252287Y-104811610D01*
X136299516Y-104718917D01*
X136347489Y-104668123D01*
X136415310Y-104651328D01*
X136481445Y-104673865D01*
X136520485Y-104718919D01*
X136567715Y-104811614D01*
X136688028Y-104977213D01*
X136832786Y-105121971D01*
X136987749Y-105234556D01*
X136998390Y-105242287D01*
X137114607Y-105301503D01*
X137180776Y-105335218D01*
X137180778Y-105335218D01*
X137180781Y-105335220D01*
X137285137Y-105369127D01*
X137375465Y-105398477D01*
X137476557Y-105414488D01*
X137577648Y-105430500D01*
X137577649Y-105430500D01*
X137782351Y-105430500D01*
X137782352Y-105430500D01*
X137984534Y-105398477D01*
X138179219Y-105335220D01*
X138361610Y-105242287D01*
X138454590Y-105174732D01*
X138527213Y-105121971D01*
X138527215Y-105121968D01*
X138527219Y-105121966D01*
X138671966Y-104977219D01*
X138671968Y-104977215D01*
X138671971Y-104977213D01*
X138792284Y-104811614D01*
X138792286Y-104811611D01*
X138792287Y-104811610D01*
X138839516Y-104718917D01*
X138887489Y-104668123D01*
X138955310Y-104651328D01*
X139021445Y-104673865D01*
X139060485Y-104718919D01*
X139107715Y-104811614D01*
X139228028Y-104977213D01*
X139372786Y-105121971D01*
X139527749Y-105234556D01*
X139538390Y-105242287D01*
X139654607Y-105301503D01*
X139720776Y-105335218D01*
X139720778Y-105335218D01*
X139720781Y-105335220D01*
X139825137Y-105369127D01*
X139915465Y-105398477D01*
X140016557Y-105414488D01*
X140117648Y-105430500D01*
X140117649Y-105430500D01*
X140322351Y-105430500D01*
X140322352Y-105430500D01*
X140524534Y-105398477D01*
X140719219Y-105335220D01*
X140901610Y-105242287D01*
X140994590Y-105174732D01*
X141067213Y-105121971D01*
X141067215Y-105121968D01*
X141067219Y-105121966D01*
X141211966Y-104977219D01*
X141211968Y-104977215D01*
X141211971Y-104977213D01*
X141332284Y-104811614D01*
X141332286Y-104811611D01*
X141332287Y-104811610D01*
X141379795Y-104718369D01*
X141427770Y-104667574D01*
X141495591Y-104650779D01*
X141561725Y-104673316D01*
X141600765Y-104718370D01*
X141648140Y-104811349D01*
X141768417Y-104976894D01*
X141768417Y-104976895D01*
X141913104Y-105121582D01*
X142078650Y-105241859D01*
X142260968Y-105334754D01*
X142455578Y-105397988D01*
X142510000Y-105406607D01*
X142510000Y-104563012D01*
X142567007Y-104595925D01*
X142694174Y-104630000D01*
X142825826Y-104630000D01*
X142952993Y-104595925D01*
X143010000Y-104563012D01*
X143010000Y-105406606D01*
X143064421Y-105397988D01*
X143259031Y-105334754D01*
X143441349Y-105241859D01*
X143606894Y-105121582D01*
X143606895Y-105121582D01*
X143751582Y-104976895D01*
X143751582Y-104976894D01*
X143871861Y-104811347D01*
X143919234Y-104718371D01*
X143967208Y-104667575D01*
X144035028Y-104650779D01*
X144101164Y-104673316D01*
X144140203Y-104718369D01*
X144187713Y-104811611D01*
X144308028Y-104977213D01*
X144452786Y-105121971D01*
X144607749Y-105234556D01*
X144618390Y-105242287D01*
X144734607Y-105301503D01*
X144800776Y-105335218D01*
X144800778Y-105335218D01*
X144800781Y-105335220D01*
X144905137Y-105369127D01*
X144995465Y-105398477D01*
X145096557Y-105414488D01*
X145197648Y-105430500D01*
X145197649Y-105430500D01*
X145402351Y-105430500D01*
X145402352Y-105430500D01*
X145604534Y-105398477D01*
X145799219Y-105335220D01*
X145981610Y-105242287D01*
X146074590Y-105174732D01*
X146147213Y-105121971D01*
X146147215Y-105121968D01*
X146147219Y-105121966D01*
X146291966Y-104977219D01*
X146291968Y-104977215D01*
X146291971Y-104977213D01*
X146412284Y-104811614D01*
X146412286Y-104811611D01*
X146412287Y-104811610D01*
X146459516Y-104718917D01*
X146507489Y-104668123D01*
X146575310Y-104651328D01*
X146641445Y-104673865D01*
X146680485Y-104718919D01*
X146727715Y-104811614D01*
X146848028Y-104977213D01*
X146992786Y-105121971D01*
X147147749Y-105234556D01*
X147158390Y-105242287D01*
X147274607Y-105301503D01*
X147340776Y-105335218D01*
X147340778Y-105335218D01*
X147340781Y-105335220D01*
X147445137Y-105369127D01*
X147535465Y-105398477D01*
X147636557Y-105414488D01*
X147737648Y-105430500D01*
X147737649Y-105430500D01*
X147942351Y-105430500D01*
X147942352Y-105430500D01*
X148144534Y-105398477D01*
X148339219Y-105335220D01*
X148521610Y-105242287D01*
X148614590Y-105174732D01*
X148687213Y-105121971D01*
X148687215Y-105121968D01*
X148687219Y-105121966D01*
X148831966Y-104977219D01*
X148831968Y-104977215D01*
X148831971Y-104977213D01*
X148952284Y-104811614D01*
X148952286Y-104811611D01*
X148952287Y-104811610D01*
X148999516Y-104718917D01*
X149047489Y-104668123D01*
X149115310Y-104651328D01*
X149181445Y-104673865D01*
X149220485Y-104718919D01*
X149267715Y-104811614D01*
X149388028Y-104977213D01*
X149532786Y-105121971D01*
X149687749Y-105234556D01*
X149698390Y-105242287D01*
X149814607Y-105301503D01*
X149880776Y-105335218D01*
X149880778Y-105335218D01*
X149880781Y-105335220D01*
X149985137Y-105369127D01*
X150075465Y-105398477D01*
X150176557Y-105414488D01*
X150277648Y-105430500D01*
X150277649Y-105430500D01*
X150482351Y-105430500D01*
X150482352Y-105430500D01*
X150684534Y-105398477D01*
X150879219Y-105335220D01*
X151061610Y-105242287D01*
X151154590Y-105174732D01*
X151227213Y-105121971D01*
X151227215Y-105121968D01*
X151227219Y-105121966D01*
X151371966Y-104977219D01*
X151371968Y-104977215D01*
X151371971Y-104977213D01*
X151492284Y-104811614D01*
X151492286Y-104811611D01*
X151492287Y-104811610D01*
X151539516Y-104718917D01*
X151587489Y-104668123D01*
X151655310Y-104651328D01*
X151721445Y-104673865D01*
X151760485Y-104718919D01*
X151807715Y-104811614D01*
X151928028Y-104977213D01*
X152072786Y-105121971D01*
X152227749Y-105234556D01*
X152238390Y-105242287D01*
X152354607Y-105301503D01*
X152420776Y-105335218D01*
X152420778Y-105335218D01*
X152420781Y-105335220D01*
X152525137Y-105369127D01*
X152615465Y-105398477D01*
X152716557Y-105414488D01*
X152817648Y-105430500D01*
X152817649Y-105430500D01*
X153022351Y-105430500D01*
X153022352Y-105430500D01*
X153224534Y-105398477D01*
X153419219Y-105335220D01*
X153601610Y-105242287D01*
X153694590Y-105174732D01*
X153767213Y-105121971D01*
X153767215Y-105121968D01*
X153767219Y-105121966D01*
X153911966Y-104977219D01*
X153911968Y-104977215D01*
X153911971Y-104977213D01*
X154032284Y-104811614D01*
X154032286Y-104811611D01*
X154032287Y-104811610D01*
X154079516Y-104718917D01*
X154127489Y-104668123D01*
X154195310Y-104651328D01*
X154261445Y-104673865D01*
X154300485Y-104718919D01*
X154347715Y-104811614D01*
X154468028Y-104977213D01*
X154612786Y-105121971D01*
X154767749Y-105234556D01*
X154778390Y-105242287D01*
X154894607Y-105301503D01*
X154960776Y-105335218D01*
X154960778Y-105335218D01*
X154960781Y-105335220D01*
X155065137Y-105369127D01*
X155155465Y-105398477D01*
X155256557Y-105414488D01*
X155357648Y-105430500D01*
X155357649Y-105430500D01*
X155562351Y-105430500D01*
X155562352Y-105430500D01*
X155764534Y-105398477D01*
X155959219Y-105335220D01*
X156141610Y-105242287D01*
X156234590Y-105174732D01*
X156307213Y-105121971D01*
X156307215Y-105121968D01*
X156307219Y-105121966D01*
X156451966Y-104977219D01*
X156451968Y-104977215D01*
X156451971Y-104977213D01*
X156572284Y-104811614D01*
X156572286Y-104811611D01*
X156572287Y-104811610D01*
X156619516Y-104718917D01*
X156667489Y-104668123D01*
X156735310Y-104651328D01*
X156801445Y-104673865D01*
X156840485Y-104718919D01*
X156887715Y-104811614D01*
X157008028Y-104977213D01*
X157152786Y-105121971D01*
X157307749Y-105234556D01*
X157318390Y-105242287D01*
X157434607Y-105301503D01*
X157500776Y-105335218D01*
X157500778Y-105335218D01*
X157500781Y-105335220D01*
X157605137Y-105369127D01*
X157695465Y-105398477D01*
X157796557Y-105414488D01*
X157897648Y-105430500D01*
X157897649Y-105430500D01*
X158102351Y-105430500D01*
X158102352Y-105430500D01*
X158304534Y-105398477D01*
X158499219Y-105335220D01*
X158681610Y-105242287D01*
X158774590Y-105174732D01*
X158847213Y-105121971D01*
X158847215Y-105121968D01*
X158847219Y-105121966D01*
X158991966Y-104977219D01*
X158991968Y-104977215D01*
X158991971Y-104977213D01*
X159044732Y-104904590D01*
X159112287Y-104811610D01*
X159205220Y-104629219D01*
X159268477Y-104434534D01*
X159300500Y-104232352D01*
X159300500Y-104027648D01*
X160759500Y-104027648D01*
X160759500Y-104232351D01*
X160791522Y-104434534D01*
X160854781Y-104629223D01*
X160947715Y-104811613D01*
X161068028Y-104977213D01*
X161212786Y-105121971D01*
X161367749Y-105234556D01*
X161378390Y-105242287D01*
X161494607Y-105301503D01*
X161560776Y-105335218D01*
X161560778Y-105335218D01*
X161560781Y-105335220D01*
X161665137Y-105369127D01*
X161755465Y-105398477D01*
X161856557Y-105414488D01*
X161957648Y-105430500D01*
X161957649Y-105430500D01*
X162162351Y-105430500D01*
X162162352Y-105430500D01*
X162364534Y-105398477D01*
X162559219Y-105335220D01*
X162741610Y-105242287D01*
X162834590Y-105174732D01*
X162907213Y-105121971D01*
X162907215Y-105121968D01*
X162907219Y-105121966D01*
X163051966Y-104977219D01*
X163051968Y-104977215D01*
X163051971Y-104977213D01*
X163172284Y-104811614D01*
X163172286Y-104811611D01*
X163172287Y-104811610D01*
X163219516Y-104718917D01*
X163267489Y-104668123D01*
X163335310Y-104651328D01*
X163401445Y-104673865D01*
X163440485Y-104718919D01*
X163487715Y-104811614D01*
X163608028Y-104977213D01*
X163752786Y-105121971D01*
X163907749Y-105234556D01*
X163918390Y-105242287D01*
X164034607Y-105301503D01*
X164100776Y-105335218D01*
X164100778Y-105335218D01*
X164100781Y-105335220D01*
X164205137Y-105369127D01*
X164295465Y-105398477D01*
X164396557Y-105414488D01*
X164497648Y-105430500D01*
X164497649Y-105430500D01*
X164702351Y-105430500D01*
X164702352Y-105430500D01*
X164904534Y-105398477D01*
X165099219Y-105335220D01*
X165281610Y-105242287D01*
X165374590Y-105174732D01*
X165447213Y-105121971D01*
X165447215Y-105121968D01*
X165447219Y-105121966D01*
X165591966Y-104977219D01*
X165591968Y-104977215D01*
X165591971Y-104977213D01*
X165712284Y-104811614D01*
X165712286Y-104811611D01*
X165712287Y-104811610D01*
X165759516Y-104718917D01*
X165807489Y-104668123D01*
X165875310Y-104651328D01*
X165941445Y-104673865D01*
X165980485Y-104718919D01*
X166027715Y-104811614D01*
X166148028Y-104977213D01*
X166292786Y-105121971D01*
X166447749Y-105234556D01*
X166458390Y-105242287D01*
X166574607Y-105301503D01*
X166640776Y-105335218D01*
X166640778Y-105335218D01*
X166640781Y-105335220D01*
X166745137Y-105369127D01*
X166835465Y-105398477D01*
X166936557Y-105414488D01*
X167037648Y-105430500D01*
X167037649Y-105430500D01*
X167242351Y-105430500D01*
X167242352Y-105430500D01*
X167444534Y-105398477D01*
X167639219Y-105335220D01*
X167821610Y-105242287D01*
X167914590Y-105174732D01*
X167987213Y-105121971D01*
X167987215Y-105121968D01*
X167987219Y-105121966D01*
X168131966Y-104977219D01*
X168131968Y-104977215D01*
X168131971Y-104977213D01*
X168252284Y-104811614D01*
X168252286Y-104811611D01*
X168252287Y-104811610D01*
X168299516Y-104718917D01*
X168347489Y-104668123D01*
X168415310Y-104651328D01*
X168481445Y-104673865D01*
X168520485Y-104718919D01*
X168567715Y-104811614D01*
X168688028Y-104977213D01*
X168832786Y-105121971D01*
X168987749Y-105234556D01*
X168998390Y-105242287D01*
X169114607Y-105301503D01*
X169180776Y-105335218D01*
X169180778Y-105335218D01*
X169180781Y-105335220D01*
X169285137Y-105369127D01*
X169375465Y-105398477D01*
X169476557Y-105414488D01*
X169577648Y-105430500D01*
X169577649Y-105430500D01*
X169782351Y-105430500D01*
X169782352Y-105430500D01*
X169984534Y-105398477D01*
X170179219Y-105335220D01*
X170361610Y-105242287D01*
X170454590Y-105174732D01*
X170527213Y-105121971D01*
X170527215Y-105121968D01*
X170527219Y-105121966D01*
X170671966Y-104977219D01*
X170671968Y-104977215D01*
X170671971Y-104977213D01*
X170792284Y-104811614D01*
X170792286Y-104811611D01*
X170792287Y-104811610D01*
X170839516Y-104718917D01*
X170887489Y-104668123D01*
X170955310Y-104651328D01*
X171021445Y-104673865D01*
X171060485Y-104718919D01*
X171107715Y-104811614D01*
X171228028Y-104977213D01*
X171372786Y-105121971D01*
X171527749Y-105234556D01*
X171538390Y-105242287D01*
X171654607Y-105301503D01*
X171720776Y-105335218D01*
X171720778Y-105335218D01*
X171720781Y-105335220D01*
X171825137Y-105369127D01*
X171915465Y-105398477D01*
X172016557Y-105414488D01*
X172117648Y-105430500D01*
X172117649Y-105430500D01*
X172322351Y-105430500D01*
X172322352Y-105430500D01*
X172524534Y-105398477D01*
X172719219Y-105335220D01*
X172901610Y-105242287D01*
X172994590Y-105174732D01*
X173067213Y-105121971D01*
X173067215Y-105121968D01*
X173067219Y-105121966D01*
X173211966Y-104977219D01*
X173211968Y-104977215D01*
X173211971Y-104977213D01*
X173332284Y-104811614D01*
X173332286Y-104811611D01*
X173332287Y-104811610D01*
X173379516Y-104718917D01*
X173427489Y-104668123D01*
X173495310Y-104651328D01*
X173561445Y-104673865D01*
X173600485Y-104718919D01*
X173647715Y-104811614D01*
X173768028Y-104977213D01*
X173912786Y-105121971D01*
X174067749Y-105234556D01*
X174078390Y-105242287D01*
X174194607Y-105301503D01*
X174260776Y-105335218D01*
X174260778Y-105335218D01*
X174260781Y-105335220D01*
X174365137Y-105369127D01*
X174455465Y-105398477D01*
X174556557Y-105414488D01*
X174657648Y-105430500D01*
X174657649Y-105430500D01*
X174862351Y-105430500D01*
X174862352Y-105430500D01*
X175064534Y-105398477D01*
X175259219Y-105335220D01*
X175441610Y-105242287D01*
X175534590Y-105174732D01*
X175607213Y-105121971D01*
X175607215Y-105121968D01*
X175607219Y-105121966D01*
X175751966Y-104977219D01*
X175751968Y-104977215D01*
X175751971Y-104977213D01*
X175872284Y-104811614D01*
X175872286Y-104811611D01*
X175872287Y-104811610D01*
X175919516Y-104718917D01*
X175967489Y-104668123D01*
X176035310Y-104651328D01*
X176101445Y-104673865D01*
X176140485Y-104718919D01*
X176187715Y-104811614D01*
X176308028Y-104977213D01*
X176452786Y-105121971D01*
X176607749Y-105234556D01*
X176618390Y-105242287D01*
X176734607Y-105301503D01*
X176800776Y-105335218D01*
X176800778Y-105335218D01*
X176800781Y-105335220D01*
X176905137Y-105369127D01*
X176995465Y-105398477D01*
X177096557Y-105414488D01*
X177197648Y-105430500D01*
X177197649Y-105430500D01*
X177402351Y-105430500D01*
X177402352Y-105430500D01*
X177604534Y-105398477D01*
X177799219Y-105335220D01*
X177981610Y-105242287D01*
X178074590Y-105174732D01*
X178147213Y-105121971D01*
X178147215Y-105121968D01*
X178147219Y-105121966D01*
X178291966Y-104977219D01*
X178291968Y-104977215D01*
X178291971Y-104977213D01*
X178412284Y-104811614D01*
X178412286Y-104811611D01*
X178412287Y-104811610D01*
X178459516Y-104718917D01*
X178507489Y-104668123D01*
X178575310Y-104651328D01*
X178641445Y-104673865D01*
X178680485Y-104718919D01*
X178727715Y-104811614D01*
X178848028Y-104977213D01*
X178992786Y-105121971D01*
X179147749Y-105234556D01*
X179158390Y-105242287D01*
X179274607Y-105301503D01*
X179340776Y-105335218D01*
X179340778Y-105335218D01*
X179340781Y-105335220D01*
X179445137Y-105369127D01*
X179535465Y-105398477D01*
X179636557Y-105414488D01*
X179737648Y-105430500D01*
X179737649Y-105430500D01*
X179942351Y-105430500D01*
X179942352Y-105430500D01*
X180144534Y-105398477D01*
X180339219Y-105335220D01*
X180521610Y-105242287D01*
X180614590Y-105174732D01*
X180687213Y-105121971D01*
X180687215Y-105121968D01*
X180687219Y-105121966D01*
X180831966Y-104977219D01*
X180831968Y-104977215D01*
X180831971Y-104977213D01*
X180884732Y-104904590D01*
X180952287Y-104811610D01*
X181045220Y-104629219D01*
X181108477Y-104434534D01*
X181140500Y-104232352D01*
X181140500Y-104027648D01*
X181108477Y-103825466D01*
X181107673Y-103822993D01*
X181045218Y-103630776D01*
X180952419Y-103448650D01*
X180952287Y-103448390D01*
X180944556Y-103437749D01*
X180831971Y-103282786D01*
X180687213Y-103138028D01*
X180521613Y-103017715D01*
X180521612Y-103017714D01*
X180521610Y-103017713D01*
X180464653Y-102988691D01*
X180339223Y-102924781D01*
X180144534Y-102861522D01*
X179969995Y-102833878D01*
X179942352Y-102829500D01*
X179737648Y-102829500D01*
X179713329Y-102833351D01*
X179535465Y-102861522D01*
X179340776Y-102924781D01*
X179158386Y-103017715D01*
X178992786Y-103138028D01*
X178848028Y-103282786D01*
X178727715Y-103448386D01*
X178680485Y-103541080D01*
X178632510Y-103591876D01*
X178564689Y-103608671D01*
X178498554Y-103586134D01*
X178459515Y-103541080D01*
X178412419Y-103448650D01*
X178412287Y-103448390D01*
X178404556Y-103437749D01*
X178291971Y-103282786D01*
X178147213Y-103138028D01*
X177981613Y-103017715D01*
X177981612Y-103017714D01*
X177981610Y-103017713D01*
X177924653Y-102988691D01*
X177799223Y-102924781D01*
X177604534Y-102861522D01*
X177429995Y-102833878D01*
X177402352Y-102829500D01*
X177197648Y-102829500D01*
X177173329Y-102833351D01*
X176995465Y-102861522D01*
X176800776Y-102924781D01*
X176618386Y-103017715D01*
X176452786Y-103138028D01*
X176308028Y-103282786D01*
X176187715Y-103448386D01*
X176140485Y-103541080D01*
X176092510Y-103591876D01*
X176024689Y-103608671D01*
X175958554Y-103586134D01*
X175919515Y-103541080D01*
X175872419Y-103448650D01*
X175872287Y-103448390D01*
X175864556Y-103437749D01*
X175751971Y-103282786D01*
X175607213Y-103138028D01*
X175441613Y-103017715D01*
X175441612Y-103017714D01*
X175441610Y-103017713D01*
X175384653Y-102988691D01*
X175259223Y-102924781D01*
X175064534Y-102861522D01*
X174889995Y-102833878D01*
X174862352Y-102829500D01*
X174657648Y-102829500D01*
X174633329Y-102833351D01*
X174455465Y-102861522D01*
X174260776Y-102924781D01*
X174078386Y-103017715D01*
X173912786Y-103138028D01*
X173768028Y-103282786D01*
X173647715Y-103448386D01*
X173600485Y-103541080D01*
X173552510Y-103591876D01*
X173484689Y-103608671D01*
X173418554Y-103586134D01*
X173379515Y-103541080D01*
X173332419Y-103448650D01*
X173332287Y-103448390D01*
X173324556Y-103437749D01*
X173211971Y-103282786D01*
X173067213Y-103138028D01*
X172901613Y-103017715D01*
X172901612Y-103017714D01*
X172901610Y-103017713D01*
X172844653Y-102988691D01*
X172719223Y-102924781D01*
X172524534Y-102861522D01*
X172349995Y-102833878D01*
X172322352Y-102829500D01*
X172117648Y-102829500D01*
X172093329Y-102833351D01*
X171915465Y-102861522D01*
X171720776Y-102924781D01*
X171538386Y-103017715D01*
X171372786Y-103138028D01*
X171228028Y-103282786D01*
X171107715Y-103448386D01*
X171060485Y-103541080D01*
X171012510Y-103591876D01*
X170944689Y-103608671D01*
X170878554Y-103586134D01*
X170839515Y-103541080D01*
X170792419Y-103448650D01*
X170792287Y-103448390D01*
X170784556Y-103437749D01*
X170671971Y-103282786D01*
X170527213Y-103138028D01*
X170361613Y-103017715D01*
X170361612Y-103017714D01*
X170361610Y-103017713D01*
X170304653Y-102988691D01*
X170179223Y-102924781D01*
X169984534Y-102861522D01*
X169809995Y-102833878D01*
X169782352Y-102829500D01*
X169577648Y-102829500D01*
X169553329Y-102833351D01*
X169375465Y-102861522D01*
X169180776Y-102924781D01*
X168998386Y-103017715D01*
X168832786Y-103138028D01*
X168688028Y-103282786D01*
X168567715Y-103448386D01*
X168520485Y-103541080D01*
X168472510Y-103591876D01*
X168404689Y-103608671D01*
X168338554Y-103586134D01*
X168299515Y-103541080D01*
X168252419Y-103448650D01*
X168252287Y-103448390D01*
X168244556Y-103437749D01*
X168131971Y-103282786D01*
X167987213Y-103138028D01*
X167821613Y-103017715D01*
X167821612Y-103017714D01*
X167821610Y-103017713D01*
X167764653Y-102988691D01*
X167639223Y-102924781D01*
X167444534Y-102861522D01*
X167269995Y-102833878D01*
X167242352Y-102829500D01*
X167037648Y-102829500D01*
X167013329Y-102833351D01*
X166835465Y-102861522D01*
X166640776Y-102924781D01*
X166458386Y-103017715D01*
X166292786Y-103138028D01*
X166148028Y-103282786D01*
X166027715Y-103448386D01*
X165980485Y-103541080D01*
X165932510Y-103591876D01*
X165864689Y-103608671D01*
X165798554Y-103586134D01*
X165759515Y-103541080D01*
X165712419Y-103448650D01*
X165712287Y-103448390D01*
X165704556Y-103437749D01*
X165591971Y-103282786D01*
X165447213Y-103138028D01*
X165281613Y-103017715D01*
X165281612Y-103017714D01*
X165281610Y-103017713D01*
X165224653Y-102988691D01*
X165099223Y-102924781D01*
X164904534Y-102861522D01*
X164729995Y-102833878D01*
X164702352Y-102829500D01*
X164497648Y-102829500D01*
X164473329Y-102833351D01*
X164295465Y-102861522D01*
X164100776Y-102924781D01*
X163918386Y-103017715D01*
X163752786Y-103138028D01*
X163608028Y-103282786D01*
X163487715Y-103448386D01*
X163440485Y-103541080D01*
X163392510Y-103591876D01*
X163324689Y-103608671D01*
X163258554Y-103586134D01*
X163219515Y-103541080D01*
X163172419Y-103448650D01*
X163172287Y-103448390D01*
X163164556Y-103437749D01*
X163051971Y-103282786D01*
X162907213Y-103138028D01*
X162741613Y-103017715D01*
X162741612Y-103017714D01*
X162741610Y-103017713D01*
X162684653Y-102988691D01*
X162559223Y-102924781D01*
X162364534Y-102861522D01*
X162189995Y-102833878D01*
X162162352Y-102829500D01*
X161957648Y-102829500D01*
X161933329Y-102833351D01*
X161755465Y-102861522D01*
X161560776Y-102924781D01*
X161378386Y-103017715D01*
X161212786Y-103138028D01*
X161068028Y-103282786D01*
X160947715Y-103448386D01*
X160854781Y-103630776D01*
X160791522Y-103825465D01*
X160759500Y-104027648D01*
X159300500Y-104027648D01*
X159268477Y-103825466D01*
X159267673Y-103822993D01*
X159205218Y-103630776D01*
X159112419Y-103448650D01*
X159112287Y-103448390D01*
X159104556Y-103437749D01*
X158991971Y-103282786D01*
X158847213Y-103138028D01*
X158681613Y-103017715D01*
X158681612Y-103017714D01*
X158681610Y-103017713D01*
X158624653Y-102988691D01*
X158499223Y-102924781D01*
X158304534Y-102861522D01*
X158129995Y-102833878D01*
X158102352Y-102829500D01*
X157897648Y-102829500D01*
X157873329Y-102833351D01*
X157695465Y-102861522D01*
X157500776Y-102924781D01*
X157318386Y-103017715D01*
X157152786Y-103138028D01*
X157008028Y-103282786D01*
X156887715Y-103448386D01*
X156840485Y-103541080D01*
X156792510Y-103591876D01*
X156724689Y-103608671D01*
X156658554Y-103586134D01*
X156619515Y-103541080D01*
X156572419Y-103448650D01*
X156572287Y-103448390D01*
X156564556Y-103437749D01*
X156451971Y-103282786D01*
X156307213Y-103138028D01*
X156141613Y-103017715D01*
X156141612Y-103017714D01*
X156141610Y-103017713D01*
X156084653Y-102988691D01*
X155959223Y-102924781D01*
X155764534Y-102861522D01*
X155589995Y-102833878D01*
X155562352Y-102829500D01*
X155357648Y-102829500D01*
X155333329Y-102833351D01*
X155155465Y-102861522D01*
X154960776Y-102924781D01*
X154778386Y-103017715D01*
X154612786Y-103138028D01*
X154468028Y-103282786D01*
X154347715Y-103448386D01*
X154300485Y-103541080D01*
X154252510Y-103591876D01*
X154184689Y-103608671D01*
X154118554Y-103586134D01*
X154079515Y-103541080D01*
X154032419Y-103448650D01*
X154032287Y-103448390D01*
X154024556Y-103437749D01*
X153911971Y-103282786D01*
X153767213Y-103138028D01*
X153601613Y-103017715D01*
X153601612Y-103017714D01*
X153601610Y-103017713D01*
X153544653Y-102988691D01*
X153419223Y-102924781D01*
X153224534Y-102861522D01*
X153049995Y-102833878D01*
X153022352Y-102829500D01*
X152817648Y-102829500D01*
X152793329Y-102833351D01*
X152615465Y-102861522D01*
X152420776Y-102924781D01*
X152238386Y-103017715D01*
X152072786Y-103138028D01*
X151928028Y-103282786D01*
X151807715Y-103448386D01*
X151760485Y-103541080D01*
X151712510Y-103591876D01*
X151644689Y-103608671D01*
X151578554Y-103586134D01*
X151539515Y-103541080D01*
X151492419Y-103448650D01*
X151492287Y-103448390D01*
X151484556Y-103437749D01*
X151371971Y-103282786D01*
X151227213Y-103138028D01*
X151061613Y-103017715D01*
X151061612Y-103017714D01*
X151061610Y-103017713D01*
X151004653Y-102988691D01*
X150879223Y-102924781D01*
X150684534Y-102861522D01*
X150509995Y-102833878D01*
X150482352Y-102829500D01*
X150277648Y-102829500D01*
X150253329Y-102833351D01*
X150075465Y-102861522D01*
X149880776Y-102924781D01*
X149698386Y-103017715D01*
X149532786Y-103138028D01*
X149388028Y-103282786D01*
X149267715Y-103448386D01*
X149220485Y-103541080D01*
X149172510Y-103591876D01*
X149104689Y-103608671D01*
X149038554Y-103586134D01*
X148999515Y-103541080D01*
X148952419Y-103448650D01*
X148952287Y-103448390D01*
X148944556Y-103437749D01*
X148831971Y-103282786D01*
X148687213Y-103138028D01*
X148521613Y-103017715D01*
X148521612Y-103017714D01*
X148521610Y-103017713D01*
X148464653Y-102988691D01*
X148339223Y-102924781D01*
X148144534Y-102861522D01*
X147969995Y-102833878D01*
X147942352Y-102829500D01*
X147737648Y-102829500D01*
X147713329Y-102833351D01*
X147535465Y-102861522D01*
X147340776Y-102924781D01*
X147158386Y-103017715D01*
X146992786Y-103138028D01*
X146848028Y-103282786D01*
X146727715Y-103448386D01*
X146680485Y-103541080D01*
X146632510Y-103591876D01*
X146564689Y-103608671D01*
X146498554Y-103586134D01*
X146459515Y-103541080D01*
X146412419Y-103448650D01*
X146412287Y-103448390D01*
X146404556Y-103437749D01*
X146291971Y-103282786D01*
X146147213Y-103138028D01*
X145981613Y-103017715D01*
X145981612Y-103017714D01*
X145981610Y-103017713D01*
X145924653Y-102988691D01*
X145799223Y-102924781D01*
X145604534Y-102861522D01*
X145429995Y-102833878D01*
X145402352Y-102829500D01*
X145197648Y-102829500D01*
X145173329Y-102833351D01*
X144995465Y-102861522D01*
X144800776Y-102924781D01*
X144618386Y-103017715D01*
X144452786Y-103138028D01*
X144308028Y-103282786D01*
X144187713Y-103448388D01*
X144140203Y-103541630D01*
X144092228Y-103592426D01*
X144024407Y-103609220D01*
X143958272Y-103586682D01*
X143919234Y-103541628D01*
X143871861Y-103448652D01*
X143751582Y-103283105D01*
X143751582Y-103283104D01*
X143606895Y-103138417D01*
X143441349Y-103018140D01*
X143259029Y-102925244D01*
X143064413Y-102862009D01*
X143010000Y-102853390D01*
X143010000Y-103696988D01*
X142952993Y-103664075D01*
X142825826Y-103630000D01*
X142694174Y-103630000D01*
X142567007Y-103664075D01*
X142510000Y-103696988D01*
X142510000Y-102853390D01*
X142455586Y-102862009D01*
X142260970Y-102925244D01*
X142078650Y-103018140D01*
X141913105Y-103138417D01*
X141913104Y-103138417D01*
X141768417Y-103283104D01*
X141768417Y-103283105D01*
X141648140Y-103448650D01*
X141600765Y-103541629D01*
X141552790Y-103592425D01*
X141484969Y-103609220D01*
X141418834Y-103586682D01*
X141379795Y-103541629D01*
X141332419Y-103448650D01*
X141332287Y-103448390D01*
X141324556Y-103437749D01*
X141211971Y-103282786D01*
X141067213Y-103138028D01*
X140901613Y-103017715D01*
X140901612Y-103017714D01*
X140901610Y-103017713D01*
X140844653Y-102988691D01*
X140719223Y-102924781D01*
X140524534Y-102861522D01*
X140349995Y-102833878D01*
X140322352Y-102829500D01*
X140117648Y-102829500D01*
X140093329Y-102833351D01*
X139915465Y-102861522D01*
X139720776Y-102924781D01*
X139538386Y-103017715D01*
X139372786Y-103138028D01*
X139228028Y-103282786D01*
X139107715Y-103448386D01*
X139060485Y-103541080D01*
X139012510Y-103591876D01*
X138944689Y-103608671D01*
X138878554Y-103586134D01*
X138839515Y-103541080D01*
X138792419Y-103448650D01*
X138792287Y-103448390D01*
X138784556Y-103437749D01*
X138671971Y-103282786D01*
X138527213Y-103138028D01*
X138361613Y-103017715D01*
X138361612Y-103017714D01*
X138361610Y-103017713D01*
X138304653Y-102988691D01*
X138179223Y-102924781D01*
X137984534Y-102861522D01*
X137809995Y-102833878D01*
X137782352Y-102829500D01*
X137577648Y-102829500D01*
X137553329Y-102833351D01*
X137375465Y-102861522D01*
X137180776Y-102924781D01*
X136998386Y-103017715D01*
X136832786Y-103138028D01*
X136688028Y-103282786D01*
X136567715Y-103448386D01*
X136520485Y-103541080D01*
X136472510Y-103591876D01*
X136404689Y-103608671D01*
X136338554Y-103586134D01*
X136299515Y-103541080D01*
X136252419Y-103448650D01*
X136252287Y-103448390D01*
X136244556Y-103437749D01*
X136131971Y-103282786D01*
X135987213Y-103138028D01*
X135821613Y-103017715D01*
X135821612Y-103017714D01*
X135821610Y-103017713D01*
X135764653Y-102988691D01*
X135639223Y-102924781D01*
X135444534Y-102861522D01*
X135269995Y-102833878D01*
X135242352Y-102829500D01*
X135037648Y-102829500D01*
X135013329Y-102833351D01*
X134835465Y-102861522D01*
X134640776Y-102924781D01*
X134458386Y-103017715D01*
X134292786Y-103138028D01*
X134148028Y-103282786D01*
X134027715Y-103448386D01*
X133934781Y-103630776D01*
X133871522Y-103825465D01*
X133839500Y-104027648D01*
X90500500Y-104027648D01*
X90500500Y-55022135D01*
X142979500Y-55022135D01*
X142979500Y-56717870D01*
X142979501Y-56717876D01*
X142985908Y-56777483D01*
X143036202Y-56912328D01*
X143036206Y-56912335D01*
X143122452Y-57027544D01*
X143122455Y-57027547D01*
X143237664Y-57113793D01*
X143237671Y-57113797D01*
X143372517Y-57164091D01*
X143372516Y-57164091D01*
X143379444Y-57164835D01*
X143432127Y-57170500D01*
X145127872Y-57170499D01*
X145187483Y-57164091D01*
X145322331Y-57113796D01*
X145437546Y-57027546D01*
X145523796Y-56912331D01*
X145574091Y-56777483D01*
X145578061Y-56740556D01*
X145604796Y-56676011D01*
X145662188Y-56636161D01*
X145732013Y-56633666D01*
X145792102Y-56669317D01*
X145801667Y-56680929D01*
X145828032Y-56717217D01*
X145972786Y-56861971D01*
X146127749Y-56974556D01*
X146138390Y-56982287D01*
X146227212Y-57027544D01*
X146320776Y-57075218D01*
X146320778Y-57075218D01*
X146320781Y-57075220D01*
X146425137Y-57109127D01*
X146515465Y-57138477D01*
X146616557Y-57154488D01*
X146717648Y-57170500D01*
X146717649Y-57170500D01*
X146922351Y-57170500D01*
X146922352Y-57170500D01*
X147124534Y-57138477D01*
X147319219Y-57075220D01*
X147501610Y-56982287D01*
X147597901Y-56912328D01*
X147667213Y-56861971D01*
X147667215Y-56861968D01*
X147667219Y-56861966D01*
X147811966Y-56717219D01*
X147811968Y-56717215D01*
X147811971Y-56717213D01*
X147932284Y-56551614D01*
X147932286Y-56551611D01*
X147932287Y-56551610D01*
X147979516Y-56458917D01*
X148027489Y-56408123D01*
X148095310Y-56391328D01*
X148161445Y-56413865D01*
X148200485Y-56458919D01*
X148247715Y-56551614D01*
X148368028Y-56717213D01*
X148512786Y-56861971D01*
X148667749Y-56974556D01*
X148678390Y-56982287D01*
X148767212Y-57027544D01*
X148860776Y-57075218D01*
X148860778Y-57075218D01*
X148860781Y-57075220D01*
X148965137Y-57109127D01*
X149055465Y-57138477D01*
X149156557Y-57154488D01*
X149257648Y-57170500D01*
X149257649Y-57170500D01*
X149462351Y-57170500D01*
X149462352Y-57170500D01*
X149664534Y-57138477D01*
X149859219Y-57075220D01*
X150041610Y-56982287D01*
X150137901Y-56912328D01*
X150207213Y-56861971D01*
X150207215Y-56861968D01*
X150207219Y-56861966D01*
X150351966Y-56717219D01*
X150351968Y-56717215D01*
X150351971Y-56717213D01*
X150472284Y-56551614D01*
X150472286Y-56551611D01*
X150472287Y-56551610D01*
X150519516Y-56458917D01*
X150567489Y-56408123D01*
X150635310Y-56391328D01*
X150701445Y-56413865D01*
X150740485Y-56458919D01*
X150787715Y-56551614D01*
X150908028Y-56717213D01*
X151052786Y-56861971D01*
X151207749Y-56974556D01*
X151218390Y-56982287D01*
X151307212Y-57027544D01*
X151400776Y-57075218D01*
X151400778Y-57075218D01*
X151400781Y-57075220D01*
X151505137Y-57109127D01*
X151595465Y-57138477D01*
X151696557Y-57154488D01*
X151797648Y-57170500D01*
X151797649Y-57170500D01*
X152002351Y-57170500D01*
X152002352Y-57170500D01*
X152204534Y-57138477D01*
X152399219Y-57075220D01*
X152581610Y-56982287D01*
X152677901Y-56912328D01*
X152747213Y-56861971D01*
X152747215Y-56861968D01*
X152747219Y-56861966D01*
X152891966Y-56717219D01*
X152891968Y-56717215D01*
X152891971Y-56717213D01*
X153012284Y-56551614D01*
X153012286Y-56551611D01*
X153012287Y-56551610D01*
X153059516Y-56458917D01*
X153107489Y-56408123D01*
X153175310Y-56391328D01*
X153241445Y-56413865D01*
X153280485Y-56458919D01*
X153327715Y-56551614D01*
X153448028Y-56717213D01*
X153592786Y-56861971D01*
X153747749Y-56974556D01*
X153758390Y-56982287D01*
X153847212Y-57027544D01*
X153940776Y-57075218D01*
X153940778Y-57075218D01*
X153940781Y-57075220D01*
X154045137Y-57109127D01*
X154135465Y-57138477D01*
X154236557Y-57154488D01*
X154337648Y-57170500D01*
X154337649Y-57170500D01*
X154542351Y-57170500D01*
X154542352Y-57170500D01*
X154744534Y-57138477D01*
X154939219Y-57075220D01*
X155121610Y-56982287D01*
X155217901Y-56912328D01*
X155287213Y-56861971D01*
X155287215Y-56861968D01*
X155287219Y-56861966D01*
X155431966Y-56717219D01*
X155431968Y-56717215D01*
X155431971Y-56717213D01*
X155552284Y-56551614D01*
X155552286Y-56551611D01*
X155552287Y-56551610D01*
X155599795Y-56458369D01*
X155647770Y-56407574D01*
X155715591Y-56390779D01*
X155781725Y-56413316D01*
X155820765Y-56458370D01*
X155868140Y-56551349D01*
X155988417Y-56716894D01*
X155988417Y-56716895D01*
X156133104Y-56861582D01*
X156298650Y-56981859D01*
X156480968Y-57074754D01*
X156675578Y-57137988D01*
X156730000Y-57146607D01*
X156730000Y-56303012D01*
X156787007Y-56335925D01*
X156914174Y-56370000D01*
X157045826Y-56370000D01*
X157172993Y-56335925D01*
X157230000Y-56303012D01*
X157230000Y-57146606D01*
X157284421Y-57137988D01*
X157479031Y-57074754D01*
X157661349Y-56981859D01*
X157826894Y-56861582D01*
X157826895Y-56861582D01*
X157971582Y-56716895D01*
X157971582Y-56716894D01*
X158091859Y-56551349D01*
X158139515Y-56457820D01*
X158187489Y-56407024D01*
X158255310Y-56390229D01*
X158321445Y-56412766D01*
X158360485Y-56457820D01*
X158408140Y-56551349D01*
X158528417Y-56716894D01*
X158528417Y-56716895D01*
X158673104Y-56861582D01*
X158838650Y-56981859D01*
X159020968Y-57074754D01*
X159215578Y-57137988D01*
X159270000Y-57146607D01*
X159270000Y-56303012D01*
X159327007Y-56335925D01*
X159454174Y-56370000D01*
X159585826Y-56370000D01*
X159712993Y-56335925D01*
X159770000Y-56303012D01*
X159770000Y-57146606D01*
X159824421Y-57137988D01*
X160019031Y-57074754D01*
X160201349Y-56981859D01*
X160366894Y-56861582D01*
X160366895Y-56861582D01*
X160511582Y-56716895D01*
X160511582Y-56716894D01*
X160631861Y-56551347D01*
X160679234Y-56458371D01*
X160727208Y-56407575D01*
X160795028Y-56390779D01*
X160861164Y-56413316D01*
X160900203Y-56458369D01*
X160947713Y-56551611D01*
X161068028Y-56717213D01*
X161212786Y-56861971D01*
X161367749Y-56974556D01*
X161378390Y-56982287D01*
X161467212Y-57027544D01*
X161560776Y-57075218D01*
X161560778Y-57075218D01*
X161560781Y-57075220D01*
X161665137Y-57109127D01*
X161755465Y-57138477D01*
X161856557Y-57154488D01*
X161957648Y-57170500D01*
X161957649Y-57170500D01*
X162162351Y-57170500D01*
X162162352Y-57170500D01*
X162364534Y-57138477D01*
X162559219Y-57075220D01*
X162741610Y-56982287D01*
X162837901Y-56912328D01*
X162907213Y-56861971D01*
X162907215Y-56861968D01*
X162907219Y-56861966D01*
X163051966Y-56717219D01*
X163051968Y-56717215D01*
X163051971Y-56717213D01*
X163112670Y-56633666D01*
X163172287Y-56551610D01*
X163265220Y-56369219D01*
X163328477Y-56174534D01*
X163360500Y-55972352D01*
X163360500Y-55767648D01*
X165839500Y-55767648D01*
X165839500Y-55972351D01*
X165871522Y-56174534D01*
X165934781Y-56369223D01*
X166027715Y-56551613D01*
X166148028Y-56717213D01*
X166292786Y-56861971D01*
X166447749Y-56974556D01*
X166458390Y-56982287D01*
X166547212Y-57027544D01*
X166640776Y-57075218D01*
X166640778Y-57075218D01*
X166640781Y-57075220D01*
X166745137Y-57109127D01*
X166835465Y-57138477D01*
X166936557Y-57154488D01*
X167037648Y-57170500D01*
X167037649Y-57170500D01*
X167242351Y-57170500D01*
X167242352Y-57170500D01*
X167444534Y-57138477D01*
X167639219Y-57075220D01*
X167821610Y-56982287D01*
X167917901Y-56912328D01*
X167987213Y-56861971D01*
X167987215Y-56861968D01*
X167987219Y-56861966D01*
X168131966Y-56717219D01*
X168131968Y-56717215D01*
X168131971Y-56717213D01*
X168252284Y-56551614D01*
X168252286Y-56551611D01*
X168252287Y-56551610D01*
X168299516Y-56458917D01*
X168347489Y-56408123D01*
X168415310Y-56391328D01*
X168481445Y-56413865D01*
X168520485Y-56458919D01*
X168567715Y-56551614D01*
X168688028Y-56717213D01*
X168832786Y-56861971D01*
X168987749Y-56974556D01*
X168998390Y-56982287D01*
X169087212Y-57027544D01*
X169180776Y-57075218D01*
X169180778Y-57075218D01*
X169180781Y-57075220D01*
X169285137Y-57109127D01*
X169375465Y-57138477D01*
X169476557Y-57154488D01*
X169577648Y-57170500D01*
X169577649Y-57170500D01*
X169782351Y-57170500D01*
X169782352Y-57170500D01*
X169984534Y-57138477D01*
X170179219Y-57075220D01*
X170361610Y-56982287D01*
X170457901Y-56912328D01*
X170527213Y-56861971D01*
X170527215Y-56861968D01*
X170527219Y-56861966D01*
X170671966Y-56717219D01*
X170671968Y-56717215D01*
X170671971Y-56717213D01*
X170792284Y-56551614D01*
X170792286Y-56551611D01*
X170792287Y-56551610D01*
X170839516Y-56458917D01*
X170887489Y-56408123D01*
X170955310Y-56391328D01*
X171021445Y-56413865D01*
X171060485Y-56458919D01*
X171107715Y-56551614D01*
X171228028Y-56717213D01*
X171372786Y-56861971D01*
X171527749Y-56974556D01*
X171538390Y-56982287D01*
X171627212Y-57027544D01*
X171720776Y-57075218D01*
X171720778Y-57075218D01*
X171720781Y-57075220D01*
X171825137Y-57109127D01*
X171915465Y-57138477D01*
X172016557Y-57154488D01*
X172117648Y-57170500D01*
X172117649Y-57170500D01*
X172322351Y-57170500D01*
X172322352Y-57170500D01*
X172524534Y-57138477D01*
X172719219Y-57075220D01*
X172901610Y-56982287D01*
X172997901Y-56912328D01*
X173067213Y-56861971D01*
X173067215Y-56861968D01*
X173067219Y-56861966D01*
X173211966Y-56717219D01*
X173211968Y-56717215D01*
X173211971Y-56717213D01*
X173332284Y-56551614D01*
X173332286Y-56551611D01*
X173332287Y-56551610D01*
X173379516Y-56458917D01*
X173427489Y-56408123D01*
X173495310Y-56391328D01*
X173561445Y-56413865D01*
X173600485Y-56458919D01*
X173647715Y-56551614D01*
X173768028Y-56717213D01*
X173912786Y-56861971D01*
X174067749Y-56974556D01*
X174078390Y-56982287D01*
X174167212Y-57027544D01*
X174260776Y-57075218D01*
X174260778Y-57075218D01*
X174260781Y-57075220D01*
X174365137Y-57109127D01*
X174455465Y-57138477D01*
X174556557Y-57154488D01*
X174657648Y-57170500D01*
X174657649Y-57170500D01*
X174862351Y-57170500D01*
X174862352Y-57170500D01*
X175064534Y-57138477D01*
X175259219Y-57075220D01*
X175441610Y-56982287D01*
X175537901Y-56912328D01*
X175607213Y-56861971D01*
X175607215Y-56861968D01*
X175607219Y-56861966D01*
X175751966Y-56717219D01*
X175751968Y-56717215D01*
X175751971Y-56717213D01*
X175872284Y-56551614D01*
X175872286Y-56551611D01*
X175872287Y-56551610D01*
X175919516Y-56458917D01*
X175967489Y-56408123D01*
X176035310Y-56391328D01*
X176101445Y-56413865D01*
X176140485Y-56458919D01*
X176187715Y-56551614D01*
X176308028Y-56717213D01*
X176452786Y-56861971D01*
X176607749Y-56974556D01*
X176618390Y-56982287D01*
X176707212Y-57027544D01*
X176800776Y-57075218D01*
X176800778Y-57075218D01*
X176800781Y-57075220D01*
X176905137Y-57109127D01*
X176995465Y-57138477D01*
X177096557Y-57154488D01*
X177197648Y-57170500D01*
X177197649Y-57170500D01*
X177402351Y-57170500D01*
X177402352Y-57170500D01*
X177604534Y-57138477D01*
X177799219Y-57075220D01*
X177981610Y-56982287D01*
X178077901Y-56912328D01*
X178147213Y-56861971D01*
X178147215Y-56861968D01*
X178147219Y-56861966D01*
X178291966Y-56717219D01*
X178291968Y-56717215D01*
X178291971Y-56717213D01*
X178412284Y-56551614D01*
X178412286Y-56551611D01*
X178412287Y-56551610D01*
X178459516Y-56458917D01*
X178507489Y-56408123D01*
X178575310Y-56391328D01*
X178641445Y-56413865D01*
X178680485Y-56458919D01*
X178727715Y-56551614D01*
X178848028Y-56717213D01*
X178992786Y-56861971D01*
X179147749Y-56974556D01*
X179158390Y-56982287D01*
X179247212Y-57027544D01*
X179340776Y-57075218D01*
X179340778Y-57075218D01*
X179340781Y-57075220D01*
X179445137Y-57109127D01*
X179535465Y-57138477D01*
X179636557Y-57154488D01*
X179737648Y-57170500D01*
X179737649Y-57170500D01*
X179942351Y-57170500D01*
X179942352Y-57170500D01*
X180144534Y-57138477D01*
X180339219Y-57075220D01*
X180521610Y-56982287D01*
X180617901Y-56912328D01*
X180687213Y-56861971D01*
X180687215Y-56861968D01*
X180687219Y-56861966D01*
X180831966Y-56717219D01*
X180831968Y-56717215D01*
X180831971Y-56717213D01*
X180892670Y-56633666D01*
X180952287Y-56551610D01*
X181045220Y-56369219D01*
X181108477Y-56174534D01*
X181140500Y-55972352D01*
X181140500Y-55767648D01*
X181126144Y-55677007D01*
X181108477Y-55565465D01*
X181045218Y-55370776D01*
X180952419Y-55188650D01*
X180952287Y-55188390D01*
X180944556Y-55177749D01*
X180831971Y-55022786D01*
X180687213Y-54878028D01*
X180521613Y-54757715D01*
X180521612Y-54757714D01*
X180521610Y-54757713D01*
X180464653Y-54728691D01*
X180339223Y-54664781D01*
X180144534Y-54601522D01*
X179969995Y-54573878D01*
X179942352Y-54569500D01*
X179737648Y-54569500D01*
X179713329Y-54573351D01*
X179535465Y-54601522D01*
X179340776Y-54664781D01*
X179158386Y-54757715D01*
X178992786Y-54878028D01*
X178848028Y-55022786D01*
X178727715Y-55188386D01*
X178680485Y-55281080D01*
X178632510Y-55331876D01*
X178564689Y-55348671D01*
X178498554Y-55326134D01*
X178459515Y-55281080D01*
X178412419Y-55188650D01*
X178412287Y-55188390D01*
X178404556Y-55177749D01*
X178291971Y-55022786D01*
X178147213Y-54878028D01*
X177981613Y-54757715D01*
X177981612Y-54757714D01*
X177981610Y-54757713D01*
X177924653Y-54728691D01*
X177799223Y-54664781D01*
X177604534Y-54601522D01*
X177429995Y-54573878D01*
X177402352Y-54569500D01*
X177197648Y-54569500D01*
X177173329Y-54573351D01*
X176995465Y-54601522D01*
X176800776Y-54664781D01*
X176618386Y-54757715D01*
X176452786Y-54878028D01*
X176308028Y-55022786D01*
X176187715Y-55188386D01*
X176140485Y-55281080D01*
X176092510Y-55331876D01*
X176024689Y-55348671D01*
X175958554Y-55326134D01*
X175919515Y-55281080D01*
X175872419Y-55188650D01*
X175872287Y-55188390D01*
X175864556Y-55177749D01*
X175751971Y-55022786D01*
X175607213Y-54878028D01*
X175441613Y-54757715D01*
X175441612Y-54757714D01*
X175441610Y-54757713D01*
X175384653Y-54728691D01*
X175259223Y-54664781D01*
X175064534Y-54601522D01*
X174889995Y-54573878D01*
X174862352Y-54569500D01*
X174657648Y-54569500D01*
X174633329Y-54573351D01*
X174455465Y-54601522D01*
X174260776Y-54664781D01*
X174078386Y-54757715D01*
X173912786Y-54878028D01*
X173768028Y-55022786D01*
X173647715Y-55188386D01*
X173600485Y-55281080D01*
X173552510Y-55331876D01*
X173484689Y-55348671D01*
X173418554Y-55326134D01*
X173379515Y-55281080D01*
X173332419Y-55188650D01*
X173332287Y-55188390D01*
X173324556Y-55177749D01*
X173211971Y-55022786D01*
X173067213Y-54878028D01*
X172901613Y-54757715D01*
X172901612Y-54757714D01*
X172901610Y-54757713D01*
X172844653Y-54728691D01*
X172719223Y-54664781D01*
X172524534Y-54601522D01*
X172349995Y-54573878D01*
X172322352Y-54569500D01*
X172117648Y-54569500D01*
X172093329Y-54573351D01*
X171915465Y-54601522D01*
X171720776Y-54664781D01*
X171538386Y-54757715D01*
X171372786Y-54878028D01*
X171228028Y-55022786D01*
X171107715Y-55188386D01*
X171060485Y-55281080D01*
X171012510Y-55331876D01*
X170944689Y-55348671D01*
X170878554Y-55326134D01*
X170839515Y-55281080D01*
X170792419Y-55188650D01*
X170792287Y-55188390D01*
X170784556Y-55177749D01*
X170671971Y-55022786D01*
X170527213Y-54878028D01*
X170361613Y-54757715D01*
X170361612Y-54757714D01*
X170361610Y-54757713D01*
X170304653Y-54728691D01*
X170179223Y-54664781D01*
X169984534Y-54601522D01*
X169809995Y-54573878D01*
X169782352Y-54569500D01*
X169577648Y-54569500D01*
X169553329Y-54573351D01*
X169375465Y-54601522D01*
X169180776Y-54664781D01*
X168998386Y-54757715D01*
X168832786Y-54878028D01*
X168688028Y-55022786D01*
X168567715Y-55188386D01*
X168520485Y-55281080D01*
X168472510Y-55331876D01*
X168404689Y-55348671D01*
X168338554Y-55326134D01*
X168299515Y-55281080D01*
X168252419Y-55188650D01*
X168252287Y-55188390D01*
X168244556Y-55177749D01*
X168131971Y-55022786D01*
X167987213Y-54878028D01*
X167821613Y-54757715D01*
X167821612Y-54757714D01*
X167821610Y-54757713D01*
X167764653Y-54728691D01*
X167639223Y-54664781D01*
X167444534Y-54601522D01*
X167269995Y-54573878D01*
X167242352Y-54569500D01*
X167037648Y-54569500D01*
X167013329Y-54573351D01*
X166835465Y-54601522D01*
X166640776Y-54664781D01*
X166458386Y-54757715D01*
X166292786Y-54878028D01*
X166148028Y-55022786D01*
X166027715Y-55188386D01*
X165934781Y-55370776D01*
X165871522Y-55565465D01*
X165839500Y-55767648D01*
X163360500Y-55767648D01*
X163346144Y-55677007D01*
X163328477Y-55565465D01*
X163265218Y-55370776D01*
X163172419Y-55188650D01*
X163172287Y-55188390D01*
X163164556Y-55177749D01*
X163051971Y-55022786D01*
X162907213Y-54878028D01*
X162741613Y-54757715D01*
X162741612Y-54757714D01*
X162741610Y-54757713D01*
X162684653Y-54728691D01*
X162559223Y-54664781D01*
X162364534Y-54601522D01*
X162189995Y-54573878D01*
X162162352Y-54569500D01*
X161957648Y-54569500D01*
X161933329Y-54573351D01*
X161755465Y-54601522D01*
X161560776Y-54664781D01*
X161378386Y-54757715D01*
X161212786Y-54878028D01*
X161068028Y-55022786D01*
X160947713Y-55188388D01*
X160900203Y-55281630D01*
X160852228Y-55332426D01*
X160784407Y-55349220D01*
X160718272Y-55326682D01*
X160679234Y-55281628D01*
X160631861Y-55188652D01*
X160511582Y-55023105D01*
X160511582Y-55023104D01*
X160366895Y-54878417D01*
X160201349Y-54758140D01*
X160019029Y-54665244D01*
X159824413Y-54602009D01*
X159770000Y-54593390D01*
X159770000Y-55436988D01*
X159712993Y-55404075D01*
X159585826Y-55370000D01*
X159454174Y-55370000D01*
X159327007Y-55404075D01*
X159270000Y-55436988D01*
X159270000Y-54593390D01*
X159215586Y-54602009D01*
X159020970Y-54665244D01*
X158838650Y-54758140D01*
X158673105Y-54878417D01*
X158673104Y-54878417D01*
X158528417Y-55023104D01*
X158528417Y-55023105D01*
X158408140Y-55188650D01*
X158360485Y-55282179D01*
X158312510Y-55332975D01*
X158244689Y-55349770D01*
X158178554Y-55327232D01*
X158139515Y-55282179D01*
X158091859Y-55188650D01*
X157971582Y-55023105D01*
X157971582Y-55023104D01*
X157826895Y-54878417D01*
X157661349Y-54758140D01*
X157479029Y-54665244D01*
X157284413Y-54602009D01*
X157230000Y-54593390D01*
X157230000Y-55436988D01*
X157172993Y-55404075D01*
X157045826Y-55370000D01*
X156914174Y-55370000D01*
X156787007Y-55404075D01*
X156730000Y-55436988D01*
X156730000Y-54593390D01*
X156675586Y-54602009D01*
X156480970Y-54665244D01*
X156298650Y-54758140D01*
X156133105Y-54878417D01*
X156133104Y-54878417D01*
X155988417Y-55023104D01*
X155988417Y-55023105D01*
X155868140Y-55188650D01*
X155820765Y-55281629D01*
X155772790Y-55332425D01*
X155704969Y-55349220D01*
X155638834Y-55326682D01*
X155599795Y-55281629D01*
X155552419Y-55188650D01*
X155552287Y-55188390D01*
X155544556Y-55177749D01*
X155431971Y-55022786D01*
X155287213Y-54878028D01*
X155121613Y-54757715D01*
X155121612Y-54757714D01*
X155121610Y-54757713D01*
X155064653Y-54728691D01*
X154939223Y-54664781D01*
X154744534Y-54601522D01*
X154569995Y-54573878D01*
X154542352Y-54569500D01*
X154337648Y-54569500D01*
X154313329Y-54573351D01*
X154135465Y-54601522D01*
X153940776Y-54664781D01*
X153758386Y-54757715D01*
X153592786Y-54878028D01*
X153448028Y-55022786D01*
X153327715Y-55188386D01*
X153280485Y-55281080D01*
X153232510Y-55331876D01*
X153164689Y-55348671D01*
X153098554Y-55326134D01*
X153059515Y-55281080D01*
X153012419Y-55188650D01*
X153012287Y-55188390D01*
X153004556Y-55177749D01*
X152891971Y-55022786D01*
X152747213Y-54878028D01*
X152581613Y-54757715D01*
X152581612Y-54757714D01*
X152581610Y-54757713D01*
X152524653Y-54728691D01*
X152399223Y-54664781D01*
X152204534Y-54601522D01*
X152029995Y-54573878D01*
X152002352Y-54569500D01*
X151797648Y-54569500D01*
X151773329Y-54573351D01*
X151595465Y-54601522D01*
X151400776Y-54664781D01*
X151218386Y-54757715D01*
X151052786Y-54878028D01*
X150908028Y-55022786D01*
X150787715Y-55188386D01*
X150740485Y-55281080D01*
X150692510Y-55331876D01*
X150624689Y-55348671D01*
X150558554Y-55326134D01*
X150519515Y-55281080D01*
X150472419Y-55188650D01*
X150472287Y-55188390D01*
X150464556Y-55177749D01*
X150351971Y-55022786D01*
X150207213Y-54878028D01*
X150041613Y-54757715D01*
X150041612Y-54757714D01*
X150041610Y-54757713D01*
X149984653Y-54728691D01*
X149859223Y-54664781D01*
X149664534Y-54601522D01*
X149489995Y-54573878D01*
X149462352Y-54569500D01*
X149257648Y-54569500D01*
X149233329Y-54573351D01*
X149055465Y-54601522D01*
X148860776Y-54664781D01*
X148678386Y-54757715D01*
X148512786Y-54878028D01*
X148368028Y-55022786D01*
X148247715Y-55188386D01*
X148200485Y-55281080D01*
X148152510Y-55331876D01*
X148084689Y-55348671D01*
X148018554Y-55326134D01*
X147979515Y-55281080D01*
X147932419Y-55188650D01*
X147932287Y-55188390D01*
X147924556Y-55177749D01*
X147811971Y-55022786D01*
X147667213Y-54878028D01*
X147501613Y-54757715D01*
X147501612Y-54757714D01*
X147501610Y-54757713D01*
X147444653Y-54728691D01*
X147319223Y-54664781D01*
X147124534Y-54601522D01*
X146949995Y-54573878D01*
X146922352Y-54569500D01*
X146717648Y-54569500D01*
X146693329Y-54573351D01*
X146515465Y-54601522D01*
X146320776Y-54664781D01*
X146138386Y-54757715D01*
X145972786Y-54878028D01*
X145828032Y-55022782D01*
X145801668Y-55059070D01*
X145746338Y-55101735D01*
X145676724Y-55107714D01*
X145614929Y-55075108D01*
X145580572Y-55014269D01*
X145578060Y-54999438D01*
X145577640Y-54995533D01*
X145574091Y-54962517D01*
X145523796Y-54827669D01*
X145523795Y-54827668D01*
X145523793Y-54827664D01*
X145437547Y-54712455D01*
X145437544Y-54712452D01*
X145322335Y-54626206D01*
X145322328Y-54626202D01*
X145187482Y-54575908D01*
X145187483Y-54575908D01*
X145127883Y-54569501D01*
X145127881Y-54569500D01*
X145127873Y-54569500D01*
X145127864Y-54569500D01*
X143432129Y-54569500D01*
X143432123Y-54569501D01*
X143372516Y-54575908D01*
X143237671Y-54626202D01*
X143237664Y-54626206D01*
X143122455Y-54712452D01*
X143122452Y-54712455D01*
X143036206Y-54827664D01*
X143036202Y-54827671D01*
X142985908Y-54962517D01*
X142979501Y-55022116D01*
X142979500Y-55022135D01*
X90500500Y-55022135D01*
X90500500Y-50624500D01*
X90520185Y-50557461D01*
X90572989Y-50511706D01*
X90624500Y-50500500D01*
X209375500Y-50500500D01*
X209442539Y-50520185D01*
G37*
%TD.AperFunction*%
%TD*%
M02*
